%TF.GenerationSoftware,KiCad,Pcbnew,7.0.7+dfsg-1*%
%TF.CreationDate,2024-03-25T16:35:43+01:00*%
%TF.ProjectId,bitaxeUltra-asic,62697461-7865-4556-9c74-72612d617369,rev?*%
%TF.SameCoordinates,Original*%
%TF.FileFunction,Legend,Top*%
%TF.FilePolarity,Positive*%
%FSLAX46Y46*%
G04 Gerber Fmt 4.6, Leading zero omitted, Abs format (unit mm)*
G04 Created by KiCad (PCBNEW 7.0.7+dfsg-1) date 2024-03-25 16:35:43*
%MOMM*%
%LPD*%
G01*
G04 APERTURE LIST*
G04 Aperture macros list*
%AMRoundRect*
0 Rectangle with rounded corners*
0 $1 Rounding radius*
0 $2 $3 $4 $5 $6 $7 $8 $9 X,Y pos of 4 corners*
0 Add a 4 corners polygon primitive as box body*
4,1,4,$2,$3,$4,$5,$6,$7,$8,$9,$2,$3,0*
0 Add four circle primitives for the rounded corners*
1,1,$1+$1,$2,$3*
1,1,$1+$1,$4,$5*
1,1,$1+$1,$6,$7*
1,1,$1+$1,$8,$9*
0 Add four rect primitives between the rounded corners*
20,1,$1+$1,$2,$3,$4,$5,0*
20,1,$1+$1,$4,$5,$6,$7,0*
20,1,$1+$1,$6,$7,$8,$9,0*
20,1,$1+$1,$8,$9,$2,$3,0*%
G04 Aperture macros list end*
%ADD10C,0.150000*%
%ADD11C,0.120000*%
%ADD12C,0.127000*%
%ADD13C,0.200000*%
%ADD14C,0.313180*%
%ADD15RoundRect,0.140000X-0.140000X-0.170000X0.140000X-0.170000X0.140000X0.170000X-0.140000X0.170000X0*%
%ADD16RoundRect,0.150000X0.512500X0.150000X-0.512500X0.150000X-0.512500X-0.150000X0.512500X-0.150000X0*%
%ADD17RoundRect,0.140000X0.170000X-0.140000X0.170000X0.140000X-0.170000X0.140000X-0.170000X-0.140000X0*%
%ADD18C,2.800000*%
%ADD19RoundRect,0.250001X0.899999X-0.899999X0.899999X0.899999X-0.899999X0.899999X-0.899999X-0.899999X0*%
%ADD20C,2.300000*%
%ADD21RoundRect,0.007800X0.442200X0.122200X-0.442200X0.122200X-0.442200X-0.122200X0.442200X-0.122200X0*%
%ADD22RoundRect,0.007800X-0.122200X0.442200X-0.122200X-0.442200X0.122200X-0.442200X0.122200X0.442200X0*%
%ADD23R,2.050000X2.050000*%
%ADD24RoundRect,0.250000X0.625000X-0.350000X0.625000X0.350000X-0.625000X0.350000X-0.625000X-0.350000X0*%
%ADD25O,1.750000X1.200000*%
%ADD26C,1.500000*%
%ADD27R,1.300000X1.100000*%
%ADD28RoundRect,0.250000X1.025000X-0.875000X1.025000X0.875000X-1.025000X0.875000X-1.025000X-0.875000X0*%
%ADD29RoundRect,0.140000X-0.170000X0.140000X-0.170000X-0.140000X0.170000X-0.140000X0.170000X0.140000X0*%
%ADD30RoundRect,0.135000X0.135000X0.185000X-0.135000X0.185000X-0.135000X-0.185000X0.135000X-0.185000X0*%
%ADD31O,1.700000X1.700000*%
%ADD32R,1.700000X1.700000*%
G04 APERTURE END LIST*
D10*
X135853333Y-63839580D02*
X135805714Y-63887200D01*
X135805714Y-63887200D02*
X135662857Y-63934819D01*
X135662857Y-63934819D02*
X135567619Y-63934819D01*
X135567619Y-63934819D02*
X135424762Y-63887200D01*
X135424762Y-63887200D02*
X135329524Y-63791961D01*
X135329524Y-63791961D02*
X135281905Y-63696723D01*
X135281905Y-63696723D02*
X135234286Y-63506247D01*
X135234286Y-63506247D02*
X135234286Y-63363390D01*
X135234286Y-63363390D02*
X135281905Y-63172914D01*
X135281905Y-63172914D02*
X135329524Y-63077676D01*
X135329524Y-63077676D02*
X135424762Y-62982438D01*
X135424762Y-62982438D02*
X135567619Y-62934819D01*
X135567619Y-62934819D02*
X135662857Y-62934819D01*
X135662857Y-62934819D02*
X135805714Y-62982438D01*
X135805714Y-62982438D02*
X135853333Y-63030057D01*
X136424762Y-63363390D02*
X136329524Y-63315771D01*
X136329524Y-63315771D02*
X136281905Y-63268152D01*
X136281905Y-63268152D02*
X136234286Y-63172914D01*
X136234286Y-63172914D02*
X136234286Y-63125295D01*
X136234286Y-63125295D02*
X136281905Y-63030057D01*
X136281905Y-63030057D02*
X136329524Y-62982438D01*
X136329524Y-62982438D02*
X136424762Y-62934819D01*
X136424762Y-62934819D02*
X136615238Y-62934819D01*
X136615238Y-62934819D02*
X136710476Y-62982438D01*
X136710476Y-62982438D02*
X136758095Y-63030057D01*
X136758095Y-63030057D02*
X136805714Y-63125295D01*
X136805714Y-63125295D02*
X136805714Y-63172914D01*
X136805714Y-63172914D02*
X136758095Y-63268152D01*
X136758095Y-63268152D02*
X136710476Y-63315771D01*
X136710476Y-63315771D02*
X136615238Y-63363390D01*
X136615238Y-63363390D02*
X136424762Y-63363390D01*
X136424762Y-63363390D02*
X136329524Y-63411009D01*
X136329524Y-63411009D02*
X136281905Y-63458628D01*
X136281905Y-63458628D02*
X136234286Y-63553866D01*
X136234286Y-63553866D02*
X136234286Y-63744342D01*
X136234286Y-63744342D02*
X136281905Y-63839580D01*
X136281905Y-63839580D02*
X136329524Y-63887200D01*
X136329524Y-63887200D02*
X136424762Y-63934819D01*
X136424762Y-63934819D02*
X136615238Y-63934819D01*
X136615238Y-63934819D02*
X136710476Y-63887200D01*
X136710476Y-63887200D02*
X136758095Y-63839580D01*
X136758095Y-63839580D02*
X136805714Y-63744342D01*
X136805714Y-63744342D02*
X136805714Y-63553866D01*
X136805714Y-63553866D02*
X136758095Y-63458628D01*
X136758095Y-63458628D02*
X136710476Y-63411009D01*
X136710476Y-63411009D02*
X136615238Y-63363390D01*
X132983333Y-65809580D02*
X132935714Y-65857200D01*
X132935714Y-65857200D02*
X132792857Y-65904819D01*
X132792857Y-65904819D02*
X132697619Y-65904819D01*
X132697619Y-65904819D02*
X132554762Y-65857200D01*
X132554762Y-65857200D02*
X132459524Y-65761961D01*
X132459524Y-65761961D02*
X132411905Y-65666723D01*
X132411905Y-65666723D02*
X132364286Y-65476247D01*
X132364286Y-65476247D02*
X132364286Y-65333390D01*
X132364286Y-65333390D02*
X132411905Y-65142914D01*
X132411905Y-65142914D02*
X132459524Y-65047676D01*
X132459524Y-65047676D02*
X132554762Y-64952438D01*
X132554762Y-64952438D02*
X132697619Y-64904819D01*
X132697619Y-64904819D02*
X132792857Y-64904819D01*
X132792857Y-64904819D02*
X132935714Y-64952438D01*
X132935714Y-64952438D02*
X132983333Y-65000057D01*
X133316667Y-64904819D02*
X133935714Y-64904819D01*
X133935714Y-64904819D02*
X133602381Y-65285771D01*
X133602381Y-65285771D02*
X133745238Y-65285771D01*
X133745238Y-65285771D02*
X133840476Y-65333390D01*
X133840476Y-65333390D02*
X133888095Y-65381009D01*
X133888095Y-65381009D02*
X133935714Y-65476247D01*
X133935714Y-65476247D02*
X133935714Y-65714342D01*
X133935714Y-65714342D02*
X133888095Y-65809580D01*
X133888095Y-65809580D02*
X133840476Y-65857200D01*
X133840476Y-65857200D02*
X133745238Y-65904819D01*
X133745238Y-65904819D02*
X133459524Y-65904819D01*
X133459524Y-65904819D02*
X133364286Y-65857200D01*
X133364286Y-65857200D02*
X133316667Y-65809580D01*
X142880595Y-80914819D02*
X142880595Y-81724342D01*
X142880595Y-81724342D02*
X142928214Y-81819580D01*
X142928214Y-81819580D02*
X142975833Y-81867200D01*
X142975833Y-81867200D02*
X143071071Y-81914819D01*
X143071071Y-81914819D02*
X143261547Y-81914819D01*
X143261547Y-81914819D02*
X143356785Y-81867200D01*
X143356785Y-81867200D02*
X143404404Y-81819580D01*
X143404404Y-81819580D02*
X143452023Y-81724342D01*
X143452023Y-81724342D02*
X143452023Y-80914819D01*
X144356785Y-80914819D02*
X144166309Y-80914819D01*
X144166309Y-80914819D02*
X144071071Y-80962438D01*
X144071071Y-80962438D02*
X144023452Y-81010057D01*
X144023452Y-81010057D02*
X143928214Y-81152914D01*
X143928214Y-81152914D02*
X143880595Y-81343390D01*
X143880595Y-81343390D02*
X143880595Y-81724342D01*
X143880595Y-81724342D02*
X143928214Y-81819580D01*
X143928214Y-81819580D02*
X143975833Y-81867200D01*
X143975833Y-81867200D02*
X144071071Y-81914819D01*
X144071071Y-81914819D02*
X144261547Y-81914819D01*
X144261547Y-81914819D02*
X144356785Y-81867200D01*
X144356785Y-81867200D02*
X144404404Y-81819580D01*
X144404404Y-81819580D02*
X144452023Y-81724342D01*
X144452023Y-81724342D02*
X144452023Y-81486247D01*
X144452023Y-81486247D02*
X144404404Y-81391009D01*
X144404404Y-81391009D02*
X144356785Y-81343390D01*
X144356785Y-81343390D02*
X144261547Y-81295771D01*
X144261547Y-81295771D02*
X144071071Y-81295771D01*
X144071071Y-81295771D02*
X143975833Y-81343390D01*
X143975833Y-81343390D02*
X143928214Y-81391009D01*
X143928214Y-81391009D02*
X143880595Y-81486247D01*
X135853333Y-65809580D02*
X135805714Y-65857200D01*
X135805714Y-65857200D02*
X135662857Y-65904819D01*
X135662857Y-65904819D02*
X135567619Y-65904819D01*
X135567619Y-65904819D02*
X135424762Y-65857200D01*
X135424762Y-65857200D02*
X135329524Y-65761961D01*
X135329524Y-65761961D02*
X135281905Y-65666723D01*
X135281905Y-65666723D02*
X135234286Y-65476247D01*
X135234286Y-65476247D02*
X135234286Y-65333390D01*
X135234286Y-65333390D02*
X135281905Y-65142914D01*
X135281905Y-65142914D02*
X135329524Y-65047676D01*
X135329524Y-65047676D02*
X135424762Y-64952438D01*
X135424762Y-64952438D02*
X135567619Y-64904819D01*
X135567619Y-64904819D02*
X135662857Y-64904819D01*
X135662857Y-64904819D02*
X135805714Y-64952438D01*
X135805714Y-64952438D02*
X135853333Y-65000057D01*
X136329524Y-65904819D02*
X136520000Y-65904819D01*
X136520000Y-65904819D02*
X136615238Y-65857200D01*
X136615238Y-65857200D02*
X136662857Y-65809580D01*
X136662857Y-65809580D02*
X136758095Y-65666723D01*
X136758095Y-65666723D02*
X136805714Y-65476247D01*
X136805714Y-65476247D02*
X136805714Y-65095295D01*
X136805714Y-65095295D02*
X136758095Y-65000057D01*
X136758095Y-65000057D02*
X136710476Y-64952438D01*
X136710476Y-64952438D02*
X136615238Y-64904819D01*
X136615238Y-64904819D02*
X136424762Y-64904819D01*
X136424762Y-64904819D02*
X136329524Y-64952438D01*
X136329524Y-64952438D02*
X136281905Y-65000057D01*
X136281905Y-65000057D02*
X136234286Y-65095295D01*
X136234286Y-65095295D02*
X136234286Y-65333390D01*
X136234286Y-65333390D02*
X136281905Y-65428628D01*
X136281905Y-65428628D02*
X136329524Y-65476247D01*
X136329524Y-65476247D02*
X136424762Y-65523866D01*
X136424762Y-65523866D02*
X136615238Y-65523866D01*
X136615238Y-65523866D02*
X136710476Y-65476247D01*
X136710476Y-65476247D02*
X136758095Y-65428628D01*
X136758095Y-65428628D02*
X136805714Y-65333390D01*
X135377142Y-71719580D02*
X135329523Y-71767200D01*
X135329523Y-71767200D02*
X135186666Y-71814819D01*
X135186666Y-71814819D02*
X135091428Y-71814819D01*
X135091428Y-71814819D02*
X134948571Y-71767200D01*
X134948571Y-71767200D02*
X134853333Y-71671961D01*
X134853333Y-71671961D02*
X134805714Y-71576723D01*
X134805714Y-71576723D02*
X134758095Y-71386247D01*
X134758095Y-71386247D02*
X134758095Y-71243390D01*
X134758095Y-71243390D02*
X134805714Y-71052914D01*
X134805714Y-71052914D02*
X134853333Y-70957676D01*
X134853333Y-70957676D02*
X134948571Y-70862438D01*
X134948571Y-70862438D02*
X135091428Y-70814819D01*
X135091428Y-70814819D02*
X135186666Y-70814819D01*
X135186666Y-70814819D02*
X135329523Y-70862438D01*
X135329523Y-70862438D02*
X135377142Y-70910057D01*
X136329523Y-71814819D02*
X135758095Y-71814819D01*
X136043809Y-71814819D02*
X136043809Y-70814819D01*
X136043809Y-70814819D02*
X135948571Y-70957676D01*
X135948571Y-70957676D02*
X135853333Y-71052914D01*
X135853333Y-71052914D02*
X135758095Y-71100533D01*
X136710476Y-70910057D02*
X136758095Y-70862438D01*
X136758095Y-70862438D02*
X136853333Y-70814819D01*
X136853333Y-70814819D02*
X137091428Y-70814819D01*
X137091428Y-70814819D02*
X137186666Y-70862438D01*
X137186666Y-70862438D02*
X137234285Y-70910057D01*
X137234285Y-70910057D02*
X137281904Y-71005295D01*
X137281904Y-71005295D02*
X137281904Y-71100533D01*
X137281904Y-71100533D02*
X137234285Y-71243390D01*
X137234285Y-71243390D02*
X136662857Y-71814819D01*
X136662857Y-71814819D02*
X137281904Y-71814819D01*
X140169580Y-79862857D02*
X140217200Y-79910476D01*
X140217200Y-79910476D02*
X140264819Y-80053333D01*
X140264819Y-80053333D02*
X140264819Y-80148571D01*
X140264819Y-80148571D02*
X140217200Y-80291428D01*
X140217200Y-80291428D02*
X140121961Y-80386666D01*
X140121961Y-80386666D02*
X140026723Y-80434285D01*
X140026723Y-80434285D02*
X139836247Y-80481904D01*
X139836247Y-80481904D02*
X139693390Y-80481904D01*
X139693390Y-80481904D02*
X139502914Y-80434285D01*
X139502914Y-80434285D02*
X139407676Y-80386666D01*
X139407676Y-80386666D02*
X139312438Y-80291428D01*
X139312438Y-80291428D02*
X139264819Y-80148571D01*
X139264819Y-80148571D02*
X139264819Y-80053333D01*
X139264819Y-80053333D02*
X139312438Y-79910476D01*
X139312438Y-79910476D02*
X139360057Y-79862857D01*
X139360057Y-79481904D02*
X139312438Y-79434285D01*
X139312438Y-79434285D02*
X139264819Y-79339047D01*
X139264819Y-79339047D02*
X139264819Y-79100952D01*
X139264819Y-79100952D02*
X139312438Y-79005714D01*
X139312438Y-79005714D02*
X139360057Y-78958095D01*
X139360057Y-78958095D02*
X139455295Y-78910476D01*
X139455295Y-78910476D02*
X139550533Y-78910476D01*
X139550533Y-78910476D02*
X139693390Y-78958095D01*
X139693390Y-78958095D02*
X140264819Y-79529523D01*
X140264819Y-79529523D02*
X140264819Y-78910476D01*
X139264819Y-78005714D02*
X139264819Y-78481904D01*
X139264819Y-78481904D02*
X139741009Y-78529523D01*
X139741009Y-78529523D02*
X139693390Y-78481904D01*
X139693390Y-78481904D02*
X139645771Y-78386666D01*
X139645771Y-78386666D02*
X139645771Y-78148571D01*
X139645771Y-78148571D02*
X139693390Y-78053333D01*
X139693390Y-78053333D02*
X139741009Y-78005714D01*
X139741009Y-78005714D02*
X139836247Y-77958095D01*
X139836247Y-77958095D02*
X140074342Y-77958095D01*
X140074342Y-77958095D02*
X140169580Y-78005714D01*
X140169580Y-78005714D02*
X140217200Y-78053333D01*
X140217200Y-78053333D02*
X140264819Y-78148571D01*
X140264819Y-78148571D02*
X140264819Y-78386666D01*
X140264819Y-78386666D02*
X140217200Y-78481904D01*
X140217200Y-78481904D02*
X140169580Y-78529523D01*
X141117142Y-65809580D02*
X141069523Y-65857200D01*
X141069523Y-65857200D02*
X140926666Y-65904819D01*
X140926666Y-65904819D02*
X140831428Y-65904819D01*
X140831428Y-65904819D02*
X140688571Y-65857200D01*
X140688571Y-65857200D02*
X140593333Y-65761961D01*
X140593333Y-65761961D02*
X140545714Y-65666723D01*
X140545714Y-65666723D02*
X140498095Y-65476247D01*
X140498095Y-65476247D02*
X140498095Y-65333390D01*
X140498095Y-65333390D02*
X140545714Y-65142914D01*
X140545714Y-65142914D02*
X140593333Y-65047676D01*
X140593333Y-65047676D02*
X140688571Y-64952438D01*
X140688571Y-64952438D02*
X140831428Y-64904819D01*
X140831428Y-64904819D02*
X140926666Y-64904819D01*
X140926666Y-64904819D02*
X141069523Y-64952438D01*
X141069523Y-64952438D02*
X141117142Y-65000057D01*
X141498095Y-65000057D02*
X141545714Y-64952438D01*
X141545714Y-64952438D02*
X141640952Y-64904819D01*
X141640952Y-64904819D02*
X141879047Y-64904819D01*
X141879047Y-64904819D02*
X141974285Y-64952438D01*
X141974285Y-64952438D02*
X142021904Y-65000057D01*
X142021904Y-65000057D02*
X142069523Y-65095295D01*
X142069523Y-65095295D02*
X142069523Y-65190533D01*
X142069523Y-65190533D02*
X142021904Y-65333390D01*
X142021904Y-65333390D02*
X141450476Y-65904819D01*
X141450476Y-65904819D02*
X142069523Y-65904819D01*
X142402857Y-64904819D02*
X143021904Y-64904819D01*
X143021904Y-64904819D02*
X142688571Y-65285771D01*
X142688571Y-65285771D02*
X142831428Y-65285771D01*
X142831428Y-65285771D02*
X142926666Y-65333390D01*
X142926666Y-65333390D02*
X142974285Y-65381009D01*
X142974285Y-65381009D02*
X143021904Y-65476247D01*
X143021904Y-65476247D02*
X143021904Y-65714342D01*
X143021904Y-65714342D02*
X142974285Y-65809580D01*
X142974285Y-65809580D02*
X142926666Y-65857200D01*
X142926666Y-65857200D02*
X142831428Y-65904819D01*
X142831428Y-65904819D02*
X142545714Y-65904819D01*
X142545714Y-65904819D02*
X142450476Y-65857200D01*
X142450476Y-65857200D02*
X142402857Y-65809580D01*
X143154819Y-105743333D02*
X143869104Y-105743333D01*
X143869104Y-105743333D02*
X144011961Y-105790952D01*
X144011961Y-105790952D02*
X144107200Y-105886190D01*
X144107200Y-105886190D02*
X144154819Y-106029047D01*
X144154819Y-106029047D02*
X144154819Y-106124285D01*
X143250057Y-105314761D02*
X143202438Y-105267142D01*
X143202438Y-105267142D02*
X143154819Y-105171904D01*
X143154819Y-105171904D02*
X143154819Y-104933809D01*
X143154819Y-104933809D02*
X143202438Y-104838571D01*
X143202438Y-104838571D02*
X143250057Y-104790952D01*
X143250057Y-104790952D02*
X143345295Y-104743333D01*
X143345295Y-104743333D02*
X143440533Y-104743333D01*
X143440533Y-104743333D02*
X143583390Y-104790952D01*
X143583390Y-104790952D02*
X144154819Y-105362380D01*
X144154819Y-105362380D02*
X144154819Y-104743333D01*
X135377142Y-67779580D02*
X135329523Y-67827200D01*
X135329523Y-67827200D02*
X135186666Y-67874819D01*
X135186666Y-67874819D02*
X135091428Y-67874819D01*
X135091428Y-67874819D02*
X134948571Y-67827200D01*
X134948571Y-67827200D02*
X134853333Y-67731961D01*
X134853333Y-67731961D02*
X134805714Y-67636723D01*
X134805714Y-67636723D02*
X134758095Y-67446247D01*
X134758095Y-67446247D02*
X134758095Y-67303390D01*
X134758095Y-67303390D02*
X134805714Y-67112914D01*
X134805714Y-67112914D02*
X134853333Y-67017676D01*
X134853333Y-67017676D02*
X134948571Y-66922438D01*
X134948571Y-66922438D02*
X135091428Y-66874819D01*
X135091428Y-66874819D02*
X135186666Y-66874819D01*
X135186666Y-66874819D02*
X135329523Y-66922438D01*
X135329523Y-66922438D02*
X135377142Y-66970057D01*
X136329523Y-67874819D02*
X135758095Y-67874819D01*
X136043809Y-67874819D02*
X136043809Y-66874819D01*
X136043809Y-66874819D02*
X135948571Y-67017676D01*
X135948571Y-67017676D02*
X135853333Y-67112914D01*
X135853333Y-67112914D02*
X135758095Y-67160533D01*
X136948571Y-66874819D02*
X137043809Y-66874819D01*
X137043809Y-66874819D02*
X137139047Y-66922438D01*
X137139047Y-66922438D02*
X137186666Y-66970057D01*
X137186666Y-66970057D02*
X137234285Y-67065295D01*
X137234285Y-67065295D02*
X137281904Y-67255771D01*
X137281904Y-67255771D02*
X137281904Y-67493866D01*
X137281904Y-67493866D02*
X137234285Y-67684342D01*
X137234285Y-67684342D02*
X137186666Y-67779580D01*
X137186666Y-67779580D02*
X137139047Y-67827200D01*
X137139047Y-67827200D02*
X137043809Y-67874819D01*
X137043809Y-67874819D02*
X136948571Y-67874819D01*
X136948571Y-67874819D02*
X136853333Y-67827200D01*
X136853333Y-67827200D02*
X136805714Y-67779580D01*
X136805714Y-67779580D02*
X136758095Y-67684342D01*
X136758095Y-67684342D02*
X136710476Y-67493866D01*
X136710476Y-67493866D02*
X136710476Y-67255771D01*
X136710476Y-67255771D02*
X136758095Y-67065295D01*
X136758095Y-67065295D02*
X136805714Y-66970057D01*
X136805714Y-66970057D02*
X136853333Y-66922438D01*
X136853333Y-66922438D02*
X136948571Y-66874819D01*
X138247142Y-63839580D02*
X138199523Y-63887200D01*
X138199523Y-63887200D02*
X138056666Y-63934819D01*
X138056666Y-63934819D02*
X137961428Y-63934819D01*
X137961428Y-63934819D02*
X137818571Y-63887200D01*
X137818571Y-63887200D02*
X137723333Y-63791961D01*
X137723333Y-63791961D02*
X137675714Y-63696723D01*
X137675714Y-63696723D02*
X137628095Y-63506247D01*
X137628095Y-63506247D02*
X137628095Y-63363390D01*
X137628095Y-63363390D02*
X137675714Y-63172914D01*
X137675714Y-63172914D02*
X137723333Y-63077676D01*
X137723333Y-63077676D02*
X137818571Y-62982438D01*
X137818571Y-62982438D02*
X137961428Y-62934819D01*
X137961428Y-62934819D02*
X138056666Y-62934819D01*
X138056666Y-62934819D02*
X138199523Y-62982438D01*
X138199523Y-62982438D02*
X138247142Y-63030057D01*
X139199523Y-63934819D02*
X138628095Y-63934819D01*
X138913809Y-63934819D02*
X138913809Y-62934819D01*
X138913809Y-62934819D02*
X138818571Y-63077676D01*
X138818571Y-63077676D02*
X138723333Y-63172914D01*
X138723333Y-63172914D02*
X138628095Y-63220533D01*
X140104285Y-62934819D02*
X139628095Y-62934819D01*
X139628095Y-62934819D02*
X139580476Y-63411009D01*
X139580476Y-63411009D02*
X139628095Y-63363390D01*
X139628095Y-63363390D02*
X139723333Y-63315771D01*
X139723333Y-63315771D02*
X139961428Y-63315771D01*
X139961428Y-63315771D02*
X140056666Y-63363390D01*
X140056666Y-63363390D02*
X140104285Y-63411009D01*
X140104285Y-63411009D02*
X140151904Y-63506247D01*
X140151904Y-63506247D02*
X140151904Y-63744342D01*
X140151904Y-63744342D02*
X140104285Y-63839580D01*
X140104285Y-63839580D02*
X140056666Y-63887200D01*
X140056666Y-63887200D02*
X139961428Y-63934819D01*
X139961428Y-63934819D02*
X139723333Y-63934819D01*
X139723333Y-63934819D02*
X139628095Y-63887200D01*
X139628095Y-63887200D02*
X139580476Y-63839580D01*
X158515476Y-75375295D02*
X158515476Y-76022914D01*
X158515476Y-76022914D02*
X158553571Y-76099104D01*
X158553571Y-76099104D02*
X158591666Y-76137200D01*
X158591666Y-76137200D02*
X158667857Y-76175295D01*
X158667857Y-76175295D02*
X158820238Y-76175295D01*
X158820238Y-76175295D02*
X158896428Y-76137200D01*
X158896428Y-76137200D02*
X158934523Y-76099104D01*
X158934523Y-76099104D02*
X158972619Y-76022914D01*
X158972619Y-76022914D02*
X158972619Y-75375295D01*
X159315475Y-75451485D02*
X159353571Y-75413390D01*
X159353571Y-75413390D02*
X159429761Y-75375295D01*
X159429761Y-75375295D02*
X159620237Y-75375295D01*
X159620237Y-75375295D02*
X159696428Y-75413390D01*
X159696428Y-75413390D02*
X159734523Y-75451485D01*
X159734523Y-75451485D02*
X159772618Y-75527676D01*
X159772618Y-75527676D02*
X159772618Y-75603866D01*
X159772618Y-75603866D02*
X159734523Y-75718152D01*
X159734523Y-75718152D02*
X159277380Y-76175295D01*
X159277380Y-76175295D02*
X159772618Y-76175295D01*
X132983333Y-63839580D02*
X132935714Y-63887200D01*
X132935714Y-63887200D02*
X132792857Y-63934819D01*
X132792857Y-63934819D02*
X132697619Y-63934819D01*
X132697619Y-63934819D02*
X132554762Y-63887200D01*
X132554762Y-63887200D02*
X132459524Y-63791961D01*
X132459524Y-63791961D02*
X132411905Y-63696723D01*
X132411905Y-63696723D02*
X132364286Y-63506247D01*
X132364286Y-63506247D02*
X132364286Y-63363390D01*
X132364286Y-63363390D02*
X132411905Y-63172914D01*
X132411905Y-63172914D02*
X132459524Y-63077676D01*
X132459524Y-63077676D02*
X132554762Y-62982438D01*
X132554762Y-62982438D02*
X132697619Y-62934819D01*
X132697619Y-62934819D02*
X132792857Y-62934819D01*
X132792857Y-62934819D02*
X132935714Y-62982438D01*
X132935714Y-62982438D02*
X132983333Y-63030057D01*
X133364286Y-63030057D02*
X133411905Y-62982438D01*
X133411905Y-62982438D02*
X133507143Y-62934819D01*
X133507143Y-62934819D02*
X133745238Y-62934819D01*
X133745238Y-62934819D02*
X133840476Y-62982438D01*
X133840476Y-62982438D02*
X133888095Y-63030057D01*
X133888095Y-63030057D02*
X133935714Y-63125295D01*
X133935714Y-63125295D02*
X133935714Y-63220533D01*
X133935714Y-63220533D02*
X133888095Y-63363390D01*
X133888095Y-63363390D02*
X133316667Y-63934819D01*
X133316667Y-63934819D02*
X133935714Y-63934819D01*
X138247142Y-69749580D02*
X138199523Y-69797200D01*
X138199523Y-69797200D02*
X138056666Y-69844819D01*
X138056666Y-69844819D02*
X137961428Y-69844819D01*
X137961428Y-69844819D02*
X137818571Y-69797200D01*
X137818571Y-69797200D02*
X137723333Y-69701961D01*
X137723333Y-69701961D02*
X137675714Y-69606723D01*
X137675714Y-69606723D02*
X137628095Y-69416247D01*
X137628095Y-69416247D02*
X137628095Y-69273390D01*
X137628095Y-69273390D02*
X137675714Y-69082914D01*
X137675714Y-69082914D02*
X137723333Y-68987676D01*
X137723333Y-68987676D02*
X137818571Y-68892438D01*
X137818571Y-68892438D02*
X137961428Y-68844819D01*
X137961428Y-68844819D02*
X138056666Y-68844819D01*
X138056666Y-68844819D02*
X138199523Y-68892438D01*
X138199523Y-68892438D02*
X138247142Y-68940057D01*
X139199523Y-69844819D02*
X138628095Y-69844819D01*
X138913809Y-69844819D02*
X138913809Y-68844819D01*
X138913809Y-68844819D02*
X138818571Y-68987676D01*
X138818571Y-68987676D02*
X138723333Y-69082914D01*
X138723333Y-69082914D02*
X138628095Y-69130533D01*
X139770952Y-69273390D02*
X139675714Y-69225771D01*
X139675714Y-69225771D02*
X139628095Y-69178152D01*
X139628095Y-69178152D02*
X139580476Y-69082914D01*
X139580476Y-69082914D02*
X139580476Y-69035295D01*
X139580476Y-69035295D02*
X139628095Y-68940057D01*
X139628095Y-68940057D02*
X139675714Y-68892438D01*
X139675714Y-68892438D02*
X139770952Y-68844819D01*
X139770952Y-68844819D02*
X139961428Y-68844819D01*
X139961428Y-68844819D02*
X140056666Y-68892438D01*
X140056666Y-68892438D02*
X140104285Y-68940057D01*
X140104285Y-68940057D02*
X140151904Y-69035295D01*
X140151904Y-69035295D02*
X140151904Y-69082914D01*
X140151904Y-69082914D02*
X140104285Y-69178152D01*
X140104285Y-69178152D02*
X140056666Y-69225771D01*
X140056666Y-69225771D02*
X139961428Y-69273390D01*
X139961428Y-69273390D02*
X139770952Y-69273390D01*
X139770952Y-69273390D02*
X139675714Y-69321009D01*
X139675714Y-69321009D02*
X139628095Y-69368628D01*
X139628095Y-69368628D02*
X139580476Y-69463866D01*
X139580476Y-69463866D02*
X139580476Y-69654342D01*
X139580476Y-69654342D02*
X139628095Y-69749580D01*
X139628095Y-69749580D02*
X139675714Y-69797200D01*
X139675714Y-69797200D02*
X139770952Y-69844819D01*
X139770952Y-69844819D02*
X139961428Y-69844819D01*
X139961428Y-69844819D02*
X140056666Y-69797200D01*
X140056666Y-69797200D02*
X140104285Y-69749580D01*
X140104285Y-69749580D02*
X140151904Y-69654342D01*
X140151904Y-69654342D02*
X140151904Y-69463866D01*
X140151904Y-69463866D02*
X140104285Y-69368628D01*
X140104285Y-69368628D02*
X140056666Y-69321009D01*
X140056666Y-69321009D02*
X139961428Y-69273390D01*
X132983333Y-61869580D02*
X132935714Y-61917200D01*
X132935714Y-61917200D02*
X132792857Y-61964819D01*
X132792857Y-61964819D02*
X132697619Y-61964819D01*
X132697619Y-61964819D02*
X132554762Y-61917200D01*
X132554762Y-61917200D02*
X132459524Y-61821961D01*
X132459524Y-61821961D02*
X132411905Y-61726723D01*
X132411905Y-61726723D02*
X132364286Y-61536247D01*
X132364286Y-61536247D02*
X132364286Y-61393390D01*
X132364286Y-61393390D02*
X132411905Y-61202914D01*
X132411905Y-61202914D02*
X132459524Y-61107676D01*
X132459524Y-61107676D02*
X132554762Y-61012438D01*
X132554762Y-61012438D02*
X132697619Y-60964819D01*
X132697619Y-60964819D02*
X132792857Y-60964819D01*
X132792857Y-60964819D02*
X132935714Y-61012438D01*
X132935714Y-61012438D02*
X132983333Y-61060057D01*
X133935714Y-61964819D02*
X133364286Y-61964819D01*
X133650000Y-61964819D02*
X133650000Y-60964819D01*
X133650000Y-60964819D02*
X133554762Y-61107676D01*
X133554762Y-61107676D02*
X133459524Y-61202914D01*
X133459524Y-61202914D02*
X133364286Y-61250533D01*
X155304819Y-65833333D02*
X156019104Y-65833333D01*
X156019104Y-65833333D02*
X156161961Y-65880952D01*
X156161961Y-65880952D02*
X156257200Y-65976190D01*
X156257200Y-65976190D02*
X156304819Y-66119047D01*
X156304819Y-66119047D02*
X156304819Y-66214285D01*
X156304819Y-64833333D02*
X156304819Y-65404761D01*
X156304819Y-65119047D02*
X155304819Y-65119047D01*
X155304819Y-65119047D02*
X155447676Y-65214285D01*
X155447676Y-65214285D02*
X155542914Y-65309523D01*
X155542914Y-65309523D02*
X155590533Y-65404761D01*
X135377142Y-69749580D02*
X135329523Y-69797200D01*
X135329523Y-69797200D02*
X135186666Y-69844819D01*
X135186666Y-69844819D02*
X135091428Y-69844819D01*
X135091428Y-69844819D02*
X134948571Y-69797200D01*
X134948571Y-69797200D02*
X134853333Y-69701961D01*
X134853333Y-69701961D02*
X134805714Y-69606723D01*
X134805714Y-69606723D02*
X134758095Y-69416247D01*
X134758095Y-69416247D02*
X134758095Y-69273390D01*
X134758095Y-69273390D02*
X134805714Y-69082914D01*
X134805714Y-69082914D02*
X134853333Y-68987676D01*
X134853333Y-68987676D02*
X134948571Y-68892438D01*
X134948571Y-68892438D02*
X135091428Y-68844819D01*
X135091428Y-68844819D02*
X135186666Y-68844819D01*
X135186666Y-68844819D02*
X135329523Y-68892438D01*
X135329523Y-68892438D02*
X135377142Y-68940057D01*
X136329523Y-69844819D02*
X135758095Y-69844819D01*
X136043809Y-69844819D02*
X136043809Y-68844819D01*
X136043809Y-68844819D02*
X135948571Y-68987676D01*
X135948571Y-68987676D02*
X135853333Y-69082914D01*
X135853333Y-69082914D02*
X135758095Y-69130533D01*
X137281904Y-69844819D02*
X136710476Y-69844819D01*
X136996190Y-69844819D02*
X136996190Y-68844819D01*
X136996190Y-68844819D02*
X136900952Y-68987676D01*
X136900952Y-68987676D02*
X136805714Y-69082914D01*
X136805714Y-69082914D02*
X136710476Y-69130533D01*
X141117142Y-67779580D02*
X141069523Y-67827200D01*
X141069523Y-67827200D02*
X140926666Y-67874819D01*
X140926666Y-67874819D02*
X140831428Y-67874819D01*
X140831428Y-67874819D02*
X140688571Y-67827200D01*
X140688571Y-67827200D02*
X140593333Y-67731961D01*
X140593333Y-67731961D02*
X140545714Y-67636723D01*
X140545714Y-67636723D02*
X140498095Y-67446247D01*
X140498095Y-67446247D02*
X140498095Y-67303390D01*
X140498095Y-67303390D02*
X140545714Y-67112914D01*
X140545714Y-67112914D02*
X140593333Y-67017676D01*
X140593333Y-67017676D02*
X140688571Y-66922438D01*
X140688571Y-66922438D02*
X140831428Y-66874819D01*
X140831428Y-66874819D02*
X140926666Y-66874819D01*
X140926666Y-66874819D02*
X141069523Y-66922438D01*
X141069523Y-66922438D02*
X141117142Y-66970057D01*
X141498095Y-66970057D02*
X141545714Y-66922438D01*
X141545714Y-66922438D02*
X141640952Y-66874819D01*
X141640952Y-66874819D02*
X141879047Y-66874819D01*
X141879047Y-66874819D02*
X141974285Y-66922438D01*
X141974285Y-66922438D02*
X142021904Y-66970057D01*
X142021904Y-66970057D02*
X142069523Y-67065295D01*
X142069523Y-67065295D02*
X142069523Y-67160533D01*
X142069523Y-67160533D02*
X142021904Y-67303390D01*
X142021904Y-67303390D02*
X141450476Y-67874819D01*
X141450476Y-67874819D02*
X142069523Y-67874819D01*
X142926666Y-67208152D02*
X142926666Y-67874819D01*
X142688571Y-66827200D02*
X142450476Y-67541485D01*
X142450476Y-67541485D02*
X143069523Y-67541485D01*
X138247142Y-61869580D02*
X138199523Y-61917200D01*
X138199523Y-61917200D02*
X138056666Y-61964819D01*
X138056666Y-61964819D02*
X137961428Y-61964819D01*
X137961428Y-61964819D02*
X137818571Y-61917200D01*
X137818571Y-61917200D02*
X137723333Y-61821961D01*
X137723333Y-61821961D02*
X137675714Y-61726723D01*
X137675714Y-61726723D02*
X137628095Y-61536247D01*
X137628095Y-61536247D02*
X137628095Y-61393390D01*
X137628095Y-61393390D02*
X137675714Y-61202914D01*
X137675714Y-61202914D02*
X137723333Y-61107676D01*
X137723333Y-61107676D02*
X137818571Y-61012438D01*
X137818571Y-61012438D02*
X137961428Y-60964819D01*
X137961428Y-60964819D02*
X138056666Y-60964819D01*
X138056666Y-60964819D02*
X138199523Y-61012438D01*
X138199523Y-61012438D02*
X138247142Y-61060057D01*
X139199523Y-61964819D02*
X138628095Y-61964819D01*
X138913809Y-61964819D02*
X138913809Y-60964819D01*
X138913809Y-60964819D02*
X138818571Y-61107676D01*
X138818571Y-61107676D02*
X138723333Y-61202914D01*
X138723333Y-61202914D02*
X138628095Y-61250533D01*
X140056666Y-61298152D02*
X140056666Y-61964819D01*
X139818571Y-60917200D02*
X139580476Y-61631485D01*
X139580476Y-61631485D02*
X140199523Y-61631485D01*
X121101905Y-64216819D02*
X121673333Y-64216819D01*
X121387619Y-65216819D02*
X121387619Y-64216819D01*
X122006667Y-65216819D02*
X122006667Y-64216819D01*
X122006667Y-64216819D02*
X122387619Y-64216819D01*
X122387619Y-64216819D02*
X122482857Y-64264438D01*
X122482857Y-64264438D02*
X122530476Y-64312057D01*
X122530476Y-64312057D02*
X122578095Y-64407295D01*
X122578095Y-64407295D02*
X122578095Y-64550152D01*
X122578095Y-64550152D02*
X122530476Y-64645390D01*
X122530476Y-64645390D02*
X122482857Y-64693009D01*
X122482857Y-64693009D02*
X122387619Y-64740628D01*
X122387619Y-64740628D02*
X122006667Y-64740628D01*
X123530476Y-65216819D02*
X122959048Y-65216819D01*
X123244762Y-65216819D02*
X123244762Y-64216819D01*
X123244762Y-64216819D02*
X123149524Y-64359676D01*
X123149524Y-64359676D02*
X123054286Y-64454914D01*
X123054286Y-64454914D02*
X122959048Y-64502533D01*
X124387619Y-64550152D02*
X124387619Y-65216819D01*
X124149524Y-64169200D02*
X123911429Y-64883485D01*
X123911429Y-64883485D02*
X124530476Y-64883485D01*
X141117142Y-61869580D02*
X141069523Y-61917200D01*
X141069523Y-61917200D02*
X140926666Y-61964819D01*
X140926666Y-61964819D02*
X140831428Y-61964819D01*
X140831428Y-61964819D02*
X140688571Y-61917200D01*
X140688571Y-61917200D02*
X140593333Y-61821961D01*
X140593333Y-61821961D02*
X140545714Y-61726723D01*
X140545714Y-61726723D02*
X140498095Y-61536247D01*
X140498095Y-61536247D02*
X140498095Y-61393390D01*
X140498095Y-61393390D02*
X140545714Y-61202914D01*
X140545714Y-61202914D02*
X140593333Y-61107676D01*
X140593333Y-61107676D02*
X140688571Y-61012438D01*
X140688571Y-61012438D02*
X140831428Y-60964819D01*
X140831428Y-60964819D02*
X140926666Y-60964819D01*
X140926666Y-60964819D02*
X141069523Y-61012438D01*
X141069523Y-61012438D02*
X141117142Y-61060057D01*
X141498095Y-61060057D02*
X141545714Y-61012438D01*
X141545714Y-61012438D02*
X141640952Y-60964819D01*
X141640952Y-60964819D02*
X141879047Y-60964819D01*
X141879047Y-60964819D02*
X141974285Y-61012438D01*
X141974285Y-61012438D02*
X142021904Y-61060057D01*
X142021904Y-61060057D02*
X142069523Y-61155295D01*
X142069523Y-61155295D02*
X142069523Y-61250533D01*
X142069523Y-61250533D02*
X142021904Y-61393390D01*
X142021904Y-61393390D02*
X141450476Y-61964819D01*
X141450476Y-61964819D02*
X142069523Y-61964819D01*
X142688571Y-60964819D02*
X142783809Y-60964819D01*
X142783809Y-60964819D02*
X142879047Y-61012438D01*
X142879047Y-61012438D02*
X142926666Y-61060057D01*
X142926666Y-61060057D02*
X142974285Y-61155295D01*
X142974285Y-61155295D02*
X143021904Y-61345771D01*
X143021904Y-61345771D02*
X143021904Y-61583866D01*
X143021904Y-61583866D02*
X142974285Y-61774342D01*
X142974285Y-61774342D02*
X142926666Y-61869580D01*
X142926666Y-61869580D02*
X142879047Y-61917200D01*
X142879047Y-61917200D02*
X142783809Y-61964819D01*
X142783809Y-61964819D02*
X142688571Y-61964819D01*
X142688571Y-61964819D02*
X142593333Y-61917200D01*
X142593333Y-61917200D02*
X142545714Y-61869580D01*
X142545714Y-61869580D02*
X142498095Y-61774342D01*
X142498095Y-61774342D02*
X142450476Y-61583866D01*
X142450476Y-61583866D02*
X142450476Y-61345771D01*
X142450476Y-61345771D02*
X142498095Y-61155295D01*
X142498095Y-61155295D02*
X142545714Y-61060057D01*
X142545714Y-61060057D02*
X142593333Y-61012438D01*
X142593333Y-61012438D02*
X142688571Y-60964819D01*
X159541904Y-81715180D02*
X159541904Y-80905657D01*
X159541904Y-80905657D02*
X159494285Y-80810419D01*
X159494285Y-80810419D02*
X159446666Y-80762800D01*
X159446666Y-80762800D02*
X159351428Y-80715180D01*
X159351428Y-80715180D02*
X159160952Y-80715180D01*
X159160952Y-80715180D02*
X159065714Y-80762800D01*
X159065714Y-80762800D02*
X159018095Y-80810419D01*
X159018095Y-80810419D02*
X158970476Y-80905657D01*
X158970476Y-80905657D02*
X158970476Y-81715180D01*
X157970476Y-80715180D02*
X158541904Y-80715180D01*
X158256190Y-80715180D02*
X158256190Y-81715180D01*
X158256190Y-81715180D02*
X158351428Y-81572323D01*
X158351428Y-81572323D02*
X158446666Y-81477085D01*
X158446666Y-81477085D02*
X158541904Y-81429466D01*
X133149580Y-106052857D02*
X133197200Y-106100476D01*
X133197200Y-106100476D02*
X133244819Y-106243333D01*
X133244819Y-106243333D02*
X133244819Y-106338571D01*
X133244819Y-106338571D02*
X133197200Y-106481428D01*
X133197200Y-106481428D02*
X133101961Y-106576666D01*
X133101961Y-106576666D02*
X133006723Y-106624285D01*
X133006723Y-106624285D02*
X132816247Y-106671904D01*
X132816247Y-106671904D02*
X132673390Y-106671904D01*
X132673390Y-106671904D02*
X132482914Y-106624285D01*
X132482914Y-106624285D02*
X132387676Y-106576666D01*
X132387676Y-106576666D02*
X132292438Y-106481428D01*
X132292438Y-106481428D02*
X132244819Y-106338571D01*
X132244819Y-106338571D02*
X132244819Y-106243333D01*
X132244819Y-106243333D02*
X132292438Y-106100476D01*
X132292438Y-106100476D02*
X132340057Y-106052857D01*
X133244819Y-105100476D02*
X133244819Y-105671904D01*
X133244819Y-105386190D02*
X132244819Y-105386190D01*
X132244819Y-105386190D02*
X132387676Y-105481428D01*
X132387676Y-105481428D02*
X132482914Y-105576666D01*
X132482914Y-105576666D02*
X132530533Y-105671904D01*
X132244819Y-104767142D02*
X132244819Y-104148095D01*
X132244819Y-104148095D02*
X132625771Y-104481428D01*
X132625771Y-104481428D02*
X132625771Y-104338571D01*
X132625771Y-104338571D02*
X132673390Y-104243333D01*
X132673390Y-104243333D02*
X132721009Y-104195714D01*
X132721009Y-104195714D02*
X132816247Y-104148095D01*
X132816247Y-104148095D02*
X133054342Y-104148095D01*
X133054342Y-104148095D02*
X133149580Y-104195714D01*
X133149580Y-104195714D02*
X133197200Y-104243333D01*
X133197200Y-104243333D02*
X133244819Y-104338571D01*
X133244819Y-104338571D02*
X133244819Y-104624285D01*
X133244819Y-104624285D02*
X133197200Y-104719523D01*
X133197200Y-104719523D02*
X133149580Y-104767142D01*
X138247142Y-65809580D02*
X138199523Y-65857200D01*
X138199523Y-65857200D02*
X138056666Y-65904819D01*
X138056666Y-65904819D02*
X137961428Y-65904819D01*
X137961428Y-65904819D02*
X137818571Y-65857200D01*
X137818571Y-65857200D02*
X137723333Y-65761961D01*
X137723333Y-65761961D02*
X137675714Y-65666723D01*
X137675714Y-65666723D02*
X137628095Y-65476247D01*
X137628095Y-65476247D02*
X137628095Y-65333390D01*
X137628095Y-65333390D02*
X137675714Y-65142914D01*
X137675714Y-65142914D02*
X137723333Y-65047676D01*
X137723333Y-65047676D02*
X137818571Y-64952438D01*
X137818571Y-64952438D02*
X137961428Y-64904819D01*
X137961428Y-64904819D02*
X138056666Y-64904819D01*
X138056666Y-64904819D02*
X138199523Y-64952438D01*
X138199523Y-64952438D02*
X138247142Y-65000057D01*
X139199523Y-65904819D02*
X138628095Y-65904819D01*
X138913809Y-65904819D02*
X138913809Y-64904819D01*
X138913809Y-64904819D02*
X138818571Y-65047676D01*
X138818571Y-65047676D02*
X138723333Y-65142914D01*
X138723333Y-65142914D02*
X138628095Y-65190533D01*
X140056666Y-64904819D02*
X139866190Y-64904819D01*
X139866190Y-64904819D02*
X139770952Y-64952438D01*
X139770952Y-64952438D02*
X139723333Y-65000057D01*
X139723333Y-65000057D02*
X139628095Y-65142914D01*
X139628095Y-65142914D02*
X139580476Y-65333390D01*
X139580476Y-65333390D02*
X139580476Y-65714342D01*
X139580476Y-65714342D02*
X139628095Y-65809580D01*
X139628095Y-65809580D02*
X139675714Y-65857200D01*
X139675714Y-65857200D02*
X139770952Y-65904819D01*
X139770952Y-65904819D02*
X139961428Y-65904819D01*
X139961428Y-65904819D02*
X140056666Y-65857200D01*
X140056666Y-65857200D02*
X140104285Y-65809580D01*
X140104285Y-65809580D02*
X140151904Y-65714342D01*
X140151904Y-65714342D02*
X140151904Y-65476247D01*
X140151904Y-65476247D02*
X140104285Y-65381009D01*
X140104285Y-65381009D02*
X140056666Y-65333390D01*
X140056666Y-65333390D02*
X139961428Y-65285771D01*
X139961428Y-65285771D02*
X139770952Y-65285771D01*
X139770952Y-65285771D02*
X139675714Y-65333390D01*
X139675714Y-65333390D02*
X139628095Y-65381009D01*
X139628095Y-65381009D02*
X139580476Y-65476247D01*
X132983333Y-67779580D02*
X132935714Y-67827200D01*
X132935714Y-67827200D02*
X132792857Y-67874819D01*
X132792857Y-67874819D02*
X132697619Y-67874819D01*
X132697619Y-67874819D02*
X132554762Y-67827200D01*
X132554762Y-67827200D02*
X132459524Y-67731961D01*
X132459524Y-67731961D02*
X132411905Y-67636723D01*
X132411905Y-67636723D02*
X132364286Y-67446247D01*
X132364286Y-67446247D02*
X132364286Y-67303390D01*
X132364286Y-67303390D02*
X132411905Y-67112914D01*
X132411905Y-67112914D02*
X132459524Y-67017676D01*
X132459524Y-67017676D02*
X132554762Y-66922438D01*
X132554762Y-66922438D02*
X132697619Y-66874819D01*
X132697619Y-66874819D02*
X132792857Y-66874819D01*
X132792857Y-66874819D02*
X132935714Y-66922438D01*
X132935714Y-66922438D02*
X132983333Y-66970057D01*
X133840476Y-67208152D02*
X133840476Y-67874819D01*
X133602381Y-66827200D02*
X133364286Y-67541485D01*
X133364286Y-67541485D02*
X133983333Y-67541485D01*
X142489580Y-83672857D02*
X142537200Y-83720476D01*
X142537200Y-83720476D02*
X142584819Y-83863333D01*
X142584819Y-83863333D02*
X142584819Y-83958571D01*
X142584819Y-83958571D02*
X142537200Y-84101428D01*
X142537200Y-84101428D02*
X142441961Y-84196666D01*
X142441961Y-84196666D02*
X142346723Y-84244285D01*
X142346723Y-84244285D02*
X142156247Y-84291904D01*
X142156247Y-84291904D02*
X142013390Y-84291904D01*
X142013390Y-84291904D02*
X141822914Y-84244285D01*
X141822914Y-84244285D02*
X141727676Y-84196666D01*
X141727676Y-84196666D02*
X141632438Y-84101428D01*
X141632438Y-84101428D02*
X141584819Y-83958571D01*
X141584819Y-83958571D02*
X141584819Y-83863333D01*
X141584819Y-83863333D02*
X141632438Y-83720476D01*
X141632438Y-83720476D02*
X141680057Y-83672857D01*
X142584819Y-82720476D02*
X142584819Y-83291904D01*
X142584819Y-83006190D02*
X141584819Y-83006190D01*
X141584819Y-83006190D02*
X141727676Y-83101428D01*
X141727676Y-83101428D02*
X141822914Y-83196666D01*
X141822914Y-83196666D02*
X141870533Y-83291904D01*
X142584819Y-82244285D02*
X142584819Y-82053809D01*
X142584819Y-82053809D02*
X142537200Y-81958571D01*
X142537200Y-81958571D02*
X142489580Y-81910952D01*
X142489580Y-81910952D02*
X142346723Y-81815714D01*
X142346723Y-81815714D02*
X142156247Y-81768095D01*
X142156247Y-81768095D02*
X141775295Y-81768095D01*
X141775295Y-81768095D02*
X141680057Y-81815714D01*
X141680057Y-81815714D02*
X141632438Y-81863333D01*
X141632438Y-81863333D02*
X141584819Y-81958571D01*
X141584819Y-81958571D02*
X141584819Y-82149047D01*
X141584819Y-82149047D02*
X141632438Y-82244285D01*
X141632438Y-82244285D02*
X141680057Y-82291904D01*
X141680057Y-82291904D02*
X141775295Y-82339523D01*
X141775295Y-82339523D02*
X142013390Y-82339523D01*
X142013390Y-82339523D02*
X142108628Y-82291904D01*
X142108628Y-82291904D02*
X142156247Y-82244285D01*
X142156247Y-82244285D02*
X142203866Y-82149047D01*
X142203866Y-82149047D02*
X142203866Y-81958571D01*
X142203866Y-81958571D02*
X142156247Y-81863333D01*
X142156247Y-81863333D02*
X142108628Y-81815714D01*
X142108628Y-81815714D02*
X142013390Y-81768095D01*
X121101905Y-60666819D02*
X121673333Y-60666819D01*
X121387619Y-61666819D02*
X121387619Y-60666819D01*
X122006667Y-61666819D02*
X122006667Y-60666819D01*
X122006667Y-60666819D02*
X122387619Y-60666819D01*
X122387619Y-60666819D02*
X122482857Y-60714438D01*
X122482857Y-60714438D02*
X122530476Y-60762057D01*
X122530476Y-60762057D02*
X122578095Y-60857295D01*
X122578095Y-60857295D02*
X122578095Y-61000152D01*
X122578095Y-61000152D02*
X122530476Y-61095390D01*
X122530476Y-61095390D02*
X122482857Y-61143009D01*
X122482857Y-61143009D02*
X122387619Y-61190628D01*
X122387619Y-61190628D02*
X122006667Y-61190628D01*
X123530476Y-61666819D02*
X122959048Y-61666819D01*
X123244762Y-61666819D02*
X123244762Y-60666819D01*
X123244762Y-60666819D02*
X123149524Y-60809676D01*
X123149524Y-60809676D02*
X123054286Y-60904914D01*
X123054286Y-60904914D02*
X122959048Y-60952533D01*
X123863810Y-60666819D02*
X124482857Y-60666819D01*
X124482857Y-60666819D02*
X124149524Y-61047771D01*
X124149524Y-61047771D02*
X124292381Y-61047771D01*
X124292381Y-61047771D02*
X124387619Y-61095390D01*
X124387619Y-61095390D02*
X124435238Y-61143009D01*
X124435238Y-61143009D02*
X124482857Y-61238247D01*
X124482857Y-61238247D02*
X124482857Y-61476342D01*
X124482857Y-61476342D02*
X124435238Y-61571580D01*
X124435238Y-61571580D02*
X124387619Y-61619200D01*
X124387619Y-61619200D02*
X124292381Y-61666819D01*
X124292381Y-61666819D02*
X124006667Y-61666819D01*
X124006667Y-61666819D02*
X123911429Y-61619200D01*
X123911429Y-61619200D02*
X123863810Y-61571580D01*
X157823333Y-77824819D02*
X157490000Y-77348628D01*
X157251905Y-77824819D02*
X157251905Y-76824819D01*
X157251905Y-76824819D02*
X157632857Y-76824819D01*
X157632857Y-76824819D02*
X157728095Y-76872438D01*
X157728095Y-76872438D02*
X157775714Y-76920057D01*
X157775714Y-76920057D02*
X157823333Y-77015295D01*
X157823333Y-77015295D02*
X157823333Y-77158152D01*
X157823333Y-77158152D02*
X157775714Y-77253390D01*
X157775714Y-77253390D02*
X157728095Y-77301009D01*
X157728095Y-77301009D02*
X157632857Y-77348628D01*
X157632857Y-77348628D02*
X157251905Y-77348628D01*
X158680476Y-76824819D02*
X158490000Y-76824819D01*
X158490000Y-76824819D02*
X158394762Y-76872438D01*
X158394762Y-76872438D02*
X158347143Y-76920057D01*
X158347143Y-76920057D02*
X158251905Y-77062914D01*
X158251905Y-77062914D02*
X158204286Y-77253390D01*
X158204286Y-77253390D02*
X158204286Y-77634342D01*
X158204286Y-77634342D02*
X158251905Y-77729580D01*
X158251905Y-77729580D02*
X158299524Y-77777200D01*
X158299524Y-77777200D02*
X158394762Y-77824819D01*
X158394762Y-77824819D02*
X158585238Y-77824819D01*
X158585238Y-77824819D02*
X158680476Y-77777200D01*
X158680476Y-77777200D02*
X158728095Y-77729580D01*
X158728095Y-77729580D02*
X158775714Y-77634342D01*
X158775714Y-77634342D02*
X158775714Y-77396247D01*
X158775714Y-77396247D02*
X158728095Y-77301009D01*
X158728095Y-77301009D02*
X158680476Y-77253390D01*
X158680476Y-77253390D02*
X158585238Y-77205771D01*
X158585238Y-77205771D02*
X158394762Y-77205771D01*
X158394762Y-77205771D02*
X158299524Y-77253390D01*
X158299524Y-77253390D02*
X158251905Y-77301009D01*
X158251905Y-77301009D02*
X158204286Y-77396247D01*
X135853333Y-61869580D02*
X135805714Y-61917200D01*
X135805714Y-61917200D02*
X135662857Y-61964819D01*
X135662857Y-61964819D02*
X135567619Y-61964819D01*
X135567619Y-61964819D02*
X135424762Y-61917200D01*
X135424762Y-61917200D02*
X135329524Y-61821961D01*
X135329524Y-61821961D02*
X135281905Y-61726723D01*
X135281905Y-61726723D02*
X135234286Y-61536247D01*
X135234286Y-61536247D02*
X135234286Y-61393390D01*
X135234286Y-61393390D02*
X135281905Y-61202914D01*
X135281905Y-61202914D02*
X135329524Y-61107676D01*
X135329524Y-61107676D02*
X135424762Y-61012438D01*
X135424762Y-61012438D02*
X135567619Y-60964819D01*
X135567619Y-60964819D02*
X135662857Y-60964819D01*
X135662857Y-60964819D02*
X135805714Y-61012438D01*
X135805714Y-61012438D02*
X135853333Y-61060057D01*
X136186667Y-60964819D02*
X136853333Y-60964819D01*
X136853333Y-60964819D02*
X136424762Y-61964819D01*
X138247142Y-67779580D02*
X138199523Y-67827200D01*
X138199523Y-67827200D02*
X138056666Y-67874819D01*
X138056666Y-67874819D02*
X137961428Y-67874819D01*
X137961428Y-67874819D02*
X137818571Y-67827200D01*
X137818571Y-67827200D02*
X137723333Y-67731961D01*
X137723333Y-67731961D02*
X137675714Y-67636723D01*
X137675714Y-67636723D02*
X137628095Y-67446247D01*
X137628095Y-67446247D02*
X137628095Y-67303390D01*
X137628095Y-67303390D02*
X137675714Y-67112914D01*
X137675714Y-67112914D02*
X137723333Y-67017676D01*
X137723333Y-67017676D02*
X137818571Y-66922438D01*
X137818571Y-66922438D02*
X137961428Y-66874819D01*
X137961428Y-66874819D02*
X138056666Y-66874819D01*
X138056666Y-66874819D02*
X138199523Y-66922438D01*
X138199523Y-66922438D02*
X138247142Y-66970057D01*
X139199523Y-67874819D02*
X138628095Y-67874819D01*
X138913809Y-67874819D02*
X138913809Y-66874819D01*
X138913809Y-66874819D02*
X138818571Y-67017676D01*
X138818571Y-67017676D02*
X138723333Y-67112914D01*
X138723333Y-67112914D02*
X138628095Y-67160533D01*
X139532857Y-66874819D02*
X140199523Y-66874819D01*
X140199523Y-66874819D02*
X139770952Y-67874819D01*
X132983333Y-71719580D02*
X132935714Y-71767200D01*
X132935714Y-71767200D02*
X132792857Y-71814819D01*
X132792857Y-71814819D02*
X132697619Y-71814819D01*
X132697619Y-71814819D02*
X132554762Y-71767200D01*
X132554762Y-71767200D02*
X132459524Y-71671961D01*
X132459524Y-71671961D02*
X132411905Y-71576723D01*
X132411905Y-71576723D02*
X132364286Y-71386247D01*
X132364286Y-71386247D02*
X132364286Y-71243390D01*
X132364286Y-71243390D02*
X132411905Y-71052914D01*
X132411905Y-71052914D02*
X132459524Y-70957676D01*
X132459524Y-70957676D02*
X132554762Y-70862438D01*
X132554762Y-70862438D02*
X132697619Y-70814819D01*
X132697619Y-70814819D02*
X132792857Y-70814819D01*
X132792857Y-70814819D02*
X132935714Y-70862438D01*
X132935714Y-70862438D02*
X132983333Y-70910057D01*
X133840476Y-70814819D02*
X133650000Y-70814819D01*
X133650000Y-70814819D02*
X133554762Y-70862438D01*
X133554762Y-70862438D02*
X133507143Y-70910057D01*
X133507143Y-70910057D02*
X133411905Y-71052914D01*
X133411905Y-71052914D02*
X133364286Y-71243390D01*
X133364286Y-71243390D02*
X133364286Y-71624342D01*
X133364286Y-71624342D02*
X133411905Y-71719580D01*
X133411905Y-71719580D02*
X133459524Y-71767200D01*
X133459524Y-71767200D02*
X133554762Y-71814819D01*
X133554762Y-71814819D02*
X133745238Y-71814819D01*
X133745238Y-71814819D02*
X133840476Y-71767200D01*
X133840476Y-71767200D02*
X133888095Y-71719580D01*
X133888095Y-71719580D02*
X133935714Y-71624342D01*
X133935714Y-71624342D02*
X133935714Y-71386247D01*
X133935714Y-71386247D02*
X133888095Y-71291009D01*
X133888095Y-71291009D02*
X133840476Y-71243390D01*
X133840476Y-71243390D02*
X133745238Y-71195771D01*
X133745238Y-71195771D02*
X133554762Y-71195771D01*
X133554762Y-71195771D02*
X133459524Y-71243390D01*
X133459524Y-71243390D02*
X133411905Y-71291009D01*
X133411905Y-71291009D02*
X133364286Y-71386247D01*
X142748095Y-84404819D02*
X142748095Y-85214342D01*
X142748095Y-85214342D02*
X142795714Y-85309580D01*
X142795714Y-85309580D02*
X142843333Y-85357200D01*
X142843333Y-85357200D02*
X142938571Y-85404819D01*
X142938571Y-85404819D02*
X143129047Y-85404819D01*
X143129047Y-85404819D02*
X143224285Y-85357200D01*
X143224285Y-85357200D02*
X143271904Y-85309580D01*
X143271904Y-85309580D02*
X143319523Y-85214342D01*
X143319523Y-85214342D02*
X143319523Y-84404819D01*
X144271904Y-84404819D02*
X143795714Y-84404819D01*
X143795714Y-84404819D02*
X143748095Y-84881009D01*
X143748095Y-84881009D02*
X143795714Y-84833390D01*
X143795714Y-84833390D02*
X143890952Y-84785771D01*
X143890952Y-84785771D02*
X144129047Y-84785771D01*
X144129047Y-84785771D02*
X144224285Y-84833390D01*
X144224285Y-84833390D02*
X144271904Y-84881009D01*
X144271904Y-84881009D02*
X144319523Y-84976247D01*
X144319523Y-84976247D02*
X144319523Y-85214342D01*
X144319523Y-85214342D02*
X144271904Y-85309580D01*
X144271904Y-85309580D02*
X144224285Y-85357200D01*
X144224285Y-85357200D02*
X144129047Y-85404819D01*
X144129047Y-85404819D02*
X143890952Y-85404819D01*
X143890952Y-85404819D02*
X143795714Y-85357200D01*
X143795714Y-85357200D02*
X143748095Y-85309580D01*
X132983333Y-69749580D02*
X132935714Y-69797200D01*
X132935714Y-69797200D02*
X132792857Y-69844819D01*
X132792857Y-69844819D02*
X132697619Y-69844819D01*
X132697619Y-69844819D02*
X132554762Y-69797200D01*
X132554762Y-69797200D02*
X132459524Y-69701961D01*
X132459524Y-69701961D02*
X132411905Y-69606723D01*
X132411905Y-69606723D02*
X132364286Y-69416247D01*
X132364286Y-69416247D02*
X132364286Y-69273390D01*
X132364286Y-69273390D02*
X132411905Y-69082914D01*
X132411905Y-69082914D02*
X132459524Y-68987676D01*
X132459524Y-68987676D02*
X132554762Y-68892438D01*
X132554762Y-68892438D02*
X132697619Y-68844819D01*
X132697619Y-68844819D02*
X132792857Y-68844819D01*
X132792857Y-68844819D02*
X132935714Y-68892438D01*
X132935714Y-68892438D02*
X132983333Y-68940057D01*
X133888095Y-68844819D02*
X133411905Y-68844819D01*
X133411905Y-68844819D02*
X133364286Y-69321009D01*
X133364286Y-69321009D02*
X133411905Y-69273390D01*
X133411905Y-69273390D02*
X133507143Y-69225771D01*
X133507143Y-69225771D02*
X133745238Y-69225771D01*
X133745238Y-69225771D02*
X133840476Y-69273390D01*
X133840476Y-69273390D02*
X133888095Y-69321009D01*
X133888095Y-69321009D02*
X133935714Y-69416247D01*
X133935714Y-69416247D02*
X133935714Y-69654342D01*
X133935714Y-69654342D02*
X133888095Y-69749580D01*
X133888095Y-69749580D02*
X133840476Y-69797200D01*
X133840476Y-69797200D02*
X133745238Y-69844819D01*
X133745238Y-69844819D02*
X133507143Y-69844819D01*
X133507143Y-69844819D02*
X133411905Y-69797200D01*
X133411905Y-69797200D02*
X133364286Y-69749580D01*
X141117142Y-63839580D02*
X141069523Y-63887200D01*
X141069523Y-63887200D02*
X140926666Y-63934819D01*
X140926666Y-63934819D02*
X140831428Y-63934819D01*
X140831428Y-63934819D02*
X140688571Y-63887200D01*
X140688571Y-63887200D02*
X140593333Y-63791961D01*
X140593333Y-63791961D02*
X140545714Y-63696723D01*
X140545714Y-63696723D02*
X140498095Y-63506247D01*
X140498095Y-63506247D02*
X140498095Y-63363390D01*
X140498095Y-63363390D02*
X140545714Y-63172914D01*
X140545714Y-63172914D02*
X140593333Y-63077676D01*
X140593333Y-63077676D02*
X140688571Y-62982438D01*
X140688571Y-62982438D02*
X140831428Y-62934819D01*
X140831428Y-62934819D02*
X140926666Y-62934819D01*
X140926666Y-62934819D02*
X141069523Y-62982438D01*
X141069523Y-62982438D02*
X141117142Y-63030057D01*
X141498095Y-63030057D02*
X141545714Y-62982438D01*
X141545714Y-62982438D02*
X141640952Y-62934819D01*
X141640952Y-62934819D02*
X141879047Y-62934819D01*
X141879047Y-62934819D02*
X141974285Y-62982438D01*
X141974285Y-62982438D02*
X142021904Y-63030057D01*
X142021904Y-63030057D02*
X142069523Y-63125295D01*
X142069523Y-63125295D02*
X142069523Y-63220533D01*
X142069523Y-63220533D02*
X142021904Y-63363390D01*
X142021904Y-63363390D02*
X141450476Y-63934819D01*
X141450476Y-63934819D02*
X142069523Y-63934819D01*
X142450476Y-63030057D02*
X142498095Y-62982438D01*
X142498095Y-62982438D02*
X142593333Y-62934819D01*
X142593333Y-62934819D02*
X142831428Y-62934819D01*
X142831428Y-62934819D02*
X142926666Y-62982438D01*
X142926666Y-62982438D02*
X142974285Y-63030057D01*
X142974285Y-63030057D02*
X143021904Y-63125295D01*
X143021904Y-63125295D02*
X143021904Y-63220533D01*
X143021904Y-63220533D02*
X142974285Y-63363390D01*
X142974285Y-63363390D02*
X142402857Y-63934819D01*
X142402857Y-63934819D02*
X143021904Y-63934819D01*
X149104819Y-56213333D02*
X149819104Y-56213333D01*
X149819104Y-56213333D02*
X149961961Y-56260952D01*
X149961961Y-56260952D02*
X150057200Y-56356190D01*
X150057200Y-56356190D02*
X150104819Y-56499047D01*
X150104819Y-56499047D02*
X150104819Y-56594285D01*
X149104819Y-55832380D02*
X149104819Y-55213333D01*
X149104819Y-55213333D02*
X149485771Y-55546666D01*
X149485771Y-55546666D02*
X149485771Y-55403809D01*
X149485771Y-55403809D02*
X149533390Y-55308571D01*
X149533390Y-55308571D02*
X149581009Y-55260952D01*
X149581009Y-55260952D02*
X149676247Y-55213333D01*
X149676247Y-55213333D02*
X149914342Y-55213333D01*
X149914342Y-55213333D02*
X150009580Y-55260952D01*
X150009580Y-55260952D02*
X150057200Y-55308571D01*
X150057200Y-55308571D02*
X150104819Y-55403809D01*
X150104819Y-55403809D02*
X150104819Y-55689523D01*
X150104819Y-55689523D02*
X150057200Y-55784761D01*
X150057200Y-55784761D02*
X150009580Y-55832380D01*
D11*
%TO.C,C8*%
X135912164Y-64280000D02*
X136127836Y-64280000D01*
X135912164Y-65000000D02*
X136127836Y-65000000D01*
%TO.C,C3*%
X133042164Y-66250000D02*
X133257836Y-66250000D01*
X133042164Y-66970000D02*
X133257836Y-66970000D01*
%TO.C,U6*%
X143642500Y-80620000D02*
X145442500Y-80620000D01*
X143642500Y-80620000D02*
X142842500Y-80620000D01*
X143642500Y-77500000D02*
X144442500Y-77500000D01*
X143642500Y-77500000D02*
X142842500Y-77500000D01*
%TO.C,C9*%
X135912164Y-66250000D02*
X136127836Y-66250000D01*
X135912164Y-66970000D02*
X136127836Y-66970000D01*
%TO.C,C12*%
X135912164Y-72160000D02*
X136127836Y-72160000D01*
X135912164Y-72880000D02*
X136127836Y-72880000D01*
%TO.C,C25*%
X140610000Y-79327836D02*
X140610000Y-79112164D01*
X141330000Y-79327836D02*
X141330000Y-79112164D01*
%TO.C,C23*%
X141652164Y-66250000D02*
X141867836Y-66250000D01*
X141652164Y-66970000D02*
X141867836Y-66970000D01*
%TO.C,J2*%
X147460000Y-111470000D02*
X158590000Y-111470000D01*
X147460000Y-108950000D02*
X158590000Y-108950000D01*
X147460000Y-106670000D02*
X158590000Y-106670000D01*
X147460000Y-104150000D02*
X158590000Y-104150000D01*
X147460000Y-101870000D02*
X158590000Y-101870000D01*
X147460000Y-99350000D02*
X158590000Y-99350000D01*
%TO.C,C10*%
X135912164Y-68220000D02*
X136127836Y-68220000D01*
X135912164Y-68940000D02*
X136127836Y-68940000D01*
%TO.C,C15*%
X138782164Y-64280000D02*
X138997836Y-64280000D01*
X138782164Y-65000000D02*
X138997836Y-65000000D01*
D12*
%TO.C,U2*%
X160915000Y-71055000D02*
X160915000Y-74555000D01*
X157415000Y-74555000D02*
X160915000Y-74555000D01*
X157415000Y-71055000D02*
X160915000Y-71055000D01*
X157415000Y-71055000D02*
X157415000Y-74555000D01*
D13*
X161950000Y-72055000D02*
G75*
G03*
X161950000Y-72055000I-100000J0D01*
G01*
D11*
%TO.C,C2*%
X133042164Y-64280000D02*
X133257836Y-64280000D01*
X133042164Y-65000000D02*
X133257836Y-65000000D01*
%TO.C,C18*%
X138782164Y-70190000D02*
X138997836Y-70190000D01*
X138782164Y-70910000D02*
X138997836Y-70910000D01*
%TO.C,C1*%
X133042164Y-62310000D02*
X133257836Y-62310000D01*
X133042164Y-63030000D02*
X133257836Y-63030000D01*
%TO.C,J1*%
X156640000Y-69860000D02*
X157890000Y-69860000D01*
X156940000Y-69560000D02*
X161660000Y-69560000D01*
X158250000Y-69560000D02*
X158250000Y-68950000D01*
X159550000Y-69560000D02*
X159550000Y-68950000D01*
X161660000Y-69560000D02*
X161660000Y-61440000D01*
X157550000Y-68950000D02*
X161050000Y-68950000D01*
X161050000Y-68950000D02*
X161050000Y-62050000D01*
X156640000Y-68610000D02*
X156640000Y-69860000D01*
X156740000Y-68100000D02*
X156940000Y-68100000D01*
X156740000Y-67800000D02*
X156740000Y-68100000D01*
X156840000Y-67800000D02*
X156840000Y-68100000D01*
X156940000Y-67800000D02*
X156740000Y-67800000D01*
X156940000Y-67000000D02*
X157550000Y-67000000D01*
X157550000Y-67000000D02*
X157550000Y-68950000D01*
X160550000Y-66600000D02*
X160550000Y-66400000D01*
X161050000Y-66600000D02*
X160550000Y-66600000D01*
X161050000Y-66500000D02*
X160550000Y-66500000D01*
X160550000Y-66400000D02*
X161050000Y-66400000D01*
X160550000Y-64600000D02*
X160550000Y-64400000D01*
X161050000Y-64600000D02*
X160550000Y-64600000D01*
X161050000Y-64500000D02*
X160550000Y-64500000D01*
X160550000Y-64400000D02*
X161050000Y-64400000D01*
X157550000Y-64000000D02*
X156940000Y-64000000D01*
X157550000Y-62050000D02*
X157550000Y-64000000D01*
X161050000Y-62050000D02*
X157550000Y-62050000D01*
X156940000Y-61440000D02*
X156940000Y-69560000D01*
X158250000Y-61440000D02*
X158250000Y-62050000D01*
X159550000Y-61440000D02*
X159550000Y-62050000D01*
X161660000Y-61440000D02*
X156940000Y-61440000D01*
%TO.C,C11*%
X135912164Y-70190000D02*
X136127836Y-70190000D01*
X135912164Y-70910000D02*
X136127836Y-70910000D01*
%TO.C,C24*%
X141652164Y-68220000D02*
X141867836Y-68220000D01*
X141652164Y-68940000D02*
X141867836Y-68940000D01*
%TO.C,C14*%
X138782164Y-62310000D02*
X138997836Y-62310000D01*
X138782164Y-63030000D02*
X138997836Y-63030000D01*
%TO.C,TP14*%
X123790000Y-66410000D02*
G75*
G03*
X123790000Y-66410000I-950000J0D01*
G01*
%TO.C,C20*%
X141652164Y-62310000D02*
X141867836Y-62310000D01*
X141652164Y-63030000D02*
X141867836Y-63030000D01*
%TO.C,U1*%
X160350000Y-79990000D02*
X157150000Y-79990000D01*
X157150000Y-79990000D02*
X157150000Y-77490000D01*
X157150000Y-77490000D02*
X160350000Y-77490000D01*
X160350000Y-77490000D02*
X160350000Y-79990000D01*
D14*
X160666590Y-76730000D02*
G75*
G03*
X160666590Y-76730000I-156590J0D01*
G01*
D11*
%TO.C,C13*%
X133630000Y-109995000D02*
X138150000Y-109995000D01*
X138150000Y-109995000D02*
X138150000Y-101760000D01*
X133630000Y-101760000D02*
X133630000Y-109995000D01*
%TO.C,C16*%
X138782164Y-66970000D02*
X138997836Y-66970000D01*
X138782164Y-66250000D02*
X138997836Y-66250000D01*
%TO.C,C4*%
X133042164Y-68220000D02*
X133257836Y-68220000D01*
X133042164Y-68940000D02*
X133257836Y-68940000D01*
%TO.C,C19*%
X141330000Y-82922164D02*
X141330000Y-83137836D01*
X140610000Y-82922164D02*
X140610000Y-83137836D01*
%TO.C,TP13*%
X123790000Y-62860000D02*
G75*
G03*
X123790000Y-62860000I-950000J0D01*
G01*
%TO.C,R6*%
X158143641Y-76580000D02*
X157836359Y-76580000D01*
X158143641Y-75820000D02*
X157836359Y-75820000D01*
%TO.C,C7*%
X135912164Y-62310000D02*
X136127836Y-62310000D01*
X135912164Y-63030000D02*
X136127836Y-63030000D01*
%TO.C,C17*%
X138782164Y-68220000D02*
X138997836Y-68220000D01*
X138782164Y-68940000D02*
X138997836Y-68940000D01*
%TO.C,C6*%
X133042164Y-72160000D02*
X133257836Y-72160000D01*
X133042164Y-72880000D02*
X133257836Y-72880000D01*
%TO.C,U5*%
X143510000Y-84110000D02*
X145310000Y-84110000D01*
X143510000Y-84110000D02*
X142710000Y-84110000D01*
X143510000Y-80990000D02*
X144310000Y-80990000D01*
X143510000Y-80990000D02*
X142710000Y-80990000D01*
%TO.C,C5*%
X133042164Y-70190000D02*
X133257836Y-70190000D01*
X133042164Y-70910000D02*
X133257836Y-70910000D01*
%TO.C,C22*%
X141652164Y-64280000D02*
X141867836Y-64280000D01*
X141652164Y-65000000D02*
X141867836Y-65000000D01*
%TO.C,J3*%
X146050000Y-57210000D02*
X135830000Y-57210000D01*
X135830000Y-54550000D02*
X135830000Y-57210000D01*
X146050000Y-54550000D02*
X146050000Y-57210000D01*
X146050000Y-54550000D02*
X135830000Y-54550000D01*
X147320000Y-54550000D02*
X148650000Y-54550000D01*
X148650000Y-54550000D02*
X148650000Y-55880000D01*
%TD*%
%LPC*%
D15*
%TO.C,C8*%
X135540000Y-64640000D03*
X136500000Y-64640000D03*
%TD*%
%TO.C,C3*%
X132670000Y-66610000D03*
X133630000Y-66610000D03*
%TD*%
D16*
%TO.C,U6*%
X144780000Y-80010000D03*
X144780000Y-79060000D03*
X144780000Y-78110000D03*
X142505000Y-78110000D03*
X142505000Y-80010000D03*
%TD*%
D15*
%TO.C,C9*%
X135540000Y-66610000D03*
X136500000Y-66610000D03*
%TD*%
%TO.C,C12*%
X135540000Y-72520000D03*
X136500000Y-72520000D03*
%TD*%
D17*
%TO.C,C25*%
X140970000Y-79700000D03*
X140970000Y-78740000D03*
%TD*%
D15*
%TO.C,C23*%
X141280000Y-66610000D03*
X142240000Y-66610000D03*
%TD*%
D18*
%TO.C,J2*%
X159850000Y-110210000D03*
X159850000Y-105410000D03*
X159850000Y-100610000D03*
D19*
X146050000Y-110210000D03*
D20*
X146050000Y-105410000D03*
X146050000Y-100610000D03*
%TD*%
D15*
%TO.C,C10*%
X135540000Y-68580000D03*
X136500000Y-68580000D03*
%TD*%
%TO.C,C15*%
X138410000Y-64640000D03*
X139370000Y-64640000D03*
%TD*%
D21*
%TO.C,U2*%
X160850000Y-72055000D03*
D22*
X160165000Y-71120000D03*
X159665000Y-71120000D03*
X159165000Y-71120000D03*
X158665000Y-71120000D03*
X158165000Y-71120000D03*
D21*
X157480000Y-72055000D03*
X157480000Y-73555000D03*
D22*
X158165000Y-74490000D03*
X158665000Y-74490000D03*
X159165000Y-74490000D03*
X159665000Y-74490000D03*
X160165000Y-74490000D03*
D21*
X160850000Y-73555000D03*
D23*
X159165000Y-72805000D03*
%TD*%
D15*
%TO.C,C2*%
X132670000Y-64640000D03*
X133630000Y-64640000D03*
%TD*%
%TO.C,C18*%
X138410000Y-70550000D03*
X139370000Y-70550000D03*
%TD*%
%TO.C,C1*%
X132670000Y-62670000D03*
X133630000Y-62670000D03*
%TD*%
D24*
%TO.C,J1*%
X158750000Y-67500000D03*
D25*
X158750000Y-65500000D03*
X158750000Y-63500000D03*
%TD*%
D15*
%TO.C,C11*%
X135540000Y-70550000D03*
X136500000Y-70550000D03*
%TD*%
%TO.C,C24*%
X141280000Y-68580000D03*
X142240000Y-68580000D03*
%TD*%
%TO.C,C14*%
X138410000Y-62670000D03*
X139370000Y-62670000D03*
%TD*%
D26*
%TO.C,TP14*%
X122840000Y-66410000D03*
%TD*%
D15*
%TO.C,C20*%
X141280000Y-62670000D03*
X142240000Y-62670000D03*
%TD*%
D27*
%TO.C,U1*%
X159900000Y-77790000D03*
X157600000Y-77790000D03*
X157600000Y-79690000D03*
X159900000Y-79690000D03*
%TD*%
D28*
%TO.C,C13*%
X135890000Y-108610000D03*
X135890000Y-102210000D03*
%TD*%
D15*
%TO.C,C16*%
X139370000Y-66610000D03*
X138410000Y-66610000D03*
%TD*%
%TO.C,C4*%
X132670000Y-68580000D03*
X133630000Y-68580000D03*
%TD*%
D29*
%TO.C,C19*%
X140970000Y-82550000D03*
X140970000Y-83510000D03*
%TD*%
D26*
%TO.C,TP13*%
X122840000Y-62860000D03*
%TD*%
D30*
%TO.C,R6*%
X158500000Y-76200000D03*
X157480000Y-76200000D03*
%TD*%
D15*
%TO.C,C7*%
X135540000Y-62670000D03*
X136500000Y-62670000D03*
%TD*%
%TO.C,C17*%
X138410000Y-68580000D03*
X139370000Y-68580000D03*
%TD*%
%TO.C,C6*%
X132670000Y-72520000D03*
X133630000Y-72520000D03*
%TD*%
D16*
%TO.C,U5*%
X144647500Y-83500000D03*
X144647500Y-82550000D03*
X144647500Y-81600000D03*
X142372500Y-81600000D03*
X142372500Y-83500000D03*
%TD*%
D15*
%TO.C,C5*%
X132670000Y-70550000D03*
X133630000Y-70550000D03*
%TD*%
%TO.C,C22*%
X141280000Y-64640000D03*
X142240000Y-64640000D03*
%TD*%
D31*
%TO.C,J3*%
X137160000Y-55880000D03*
X139700000Y-55880000D03*
X142240000Y-55880000D03*
X144780000Y-55880000D03*
D32*
X147320000Y-55880000D03*
%TD*%
%LPD*%
M02*
