%TF.GenerationSoftware,KiCad,Pcbnew,7.0.7+dfsg-1*%
%TF.CreationDate,2024-03-25T16:35:43+01:00*%
%TF.ProjectId,bitaxeUltra-asic,62697461-7865-4556-9c74-72612d617369,rev?*%
%TF.SameCoordinates,Original*%
%TF.FileFunction,Copper,L4,Bot*%
%TF.FilePolarity,Positive*%
%FSLAX46Y46*%
G04 Gerber Fmt 4.6, Leading zero omitted, Abs format (unit mm)*
G04 Created by KiCad (PCBNEW 7.0.7+dfsg-1) date 2024-03-25 16:35:43*
%MOMM*%
%LPD*%
G01*
G04 APERTURE LIST*
G04 Aperture macros list*
%AMRoundRect*
0 Rectangle with rounded corners*
0 $1 Rounding radius*
0 $2 $3 $4 $5 $6 $7 $8 $9 X,Y pos of 4 corners*
0 Add a 4 corners polygon primitive as box body*
4,1,4,$2,$3,$4,$5,$6,$7,$8,$9,$2,$3,0*
0 Add four circle primitives for the rounded corners*
1,1,$1+$1,$2,$3*
1,1,$1+$1,$4,$5*
1,1,$1+$1,$6,$7*
1,1,$1+$1,$8,$9*
0 Add four rect primitives between the rounded corners*
20,1,$1+$1,$2,$3,$4,$5,0*
20,1,$1+$1,$4,$5,$6,$7,0*
20,1,$1+$1,$6,$7,$8,$9,0*
20,1,$1+$1,$8,$9,$2,$3,0*%
G04 Aperture macros list end*
%TA.AperFunction,ComponentPad*%
%ADD10RoundRect,0.250001X0.899999X-0.899999X0.899999X0.899999X-0.899999X0.899999X-0.899999X-0.899999X0*%
%TD*%
%TA.AperFunction,ComponentPad*%
%ADD11C,2.300000*%
%TD*%
%TA.AperFunction,ComponentPad*%
%ADD12C,0.500000*%
%TD*%
%TA.AperFunction,ComponentPad*%
%ADD13RoundRect,0.250000X0.625000X-0.350000X0.625000X0.350000X-0.625000X0.350000X-0.625000X-0.350000X0*%
%TD*%
%TA.AperFunction,ComponentPad*%
%ADD14O,1.750000X1.200000*%
%TD*%
%TA.AperFunction,SMDPad,CuDef*%
%ADD15R,0.792000X0.221000*%
%TD*%
%TA.AperFunction,SMDPad,CuDef*%
%ADD16R,4.277000X1.810000*%
%TD*%
%TA.AperFunction,SMDPad,CuDef*%
%ADD17R,4.277000X4.530000*%
%TD*%
%TA.AperFunction,ComponentPad*%
%ADD18O,1.700000X1.700000*%
%TD*%
%TA.AperFunction,ComponentPad*%
%ADD19R,1.700000X1.700000*%
%TD*%
G04 APERTURE END LIST*
D10*
%TO.P,J2,1,Pin_1*%
%TO.N,/VDD*%
X146050000Y-110210000D03*
D11*
%TO.P,J2,2,Pin_2*%
%TO.N,/5V*%
X146050000Y-105410000D03*
%TO.P,J2,3,Pin_3*%
%TO.N,/3V3*%
X146050000Y-100610000D03*
%TD*%
D12*
%TO.P,U2,16,GND*%
%TO.N,GND*%
X159665000Y-73305000D03*
%TO.P,U2,17,GND*%
X158665000Y-73305000D03*
%TO.P,U2,18,GND*%
X158665000Y-72305000D03*
%TO.P,U2,19,GND*%
X159665000Y-72305000D03*
%TD*%
D13*
%TO.P,J1,1,Pin_1*%
%TO.N,/RST*%
X158750000Y-67500000D03*
D14*
%TO.P,J1,2,Pin_2*%
%TO.N,/TX*%
X158750000Y-65500000D03*
%TO.P,J1,3,Pin_3*%
%TO.N,/RX*%
X158750000Y-63500000D03*
%TD*%
D15*
%TO.P,U14,1,VDD1_0*%
%TO.N,/BM1366/VDD1_0*%
X138806000Y-74754000D03*
%TO.P,U14,2,VDD2_0*%
%TO.N,/BM1366/VDD2_0*%
X138806000Y-75256000D03*
%TO.P,U14,3,VDD3_0*%
%TO.N,/BM1366/VDD3_0*%
X138806000Y-75758000D03*
%TO.P,U14,4,VSS*%
%TO.N,GND*%
X138806000Y-76260000D03*
%TO.P,U14,5,NRSTI*%
%TO.N,/BM1366/RST_N*%
X138806000Y-76762000D03*
%TO.P,U14,6,BI*%
%TO.N,/BM1366/BI*%
X138806000Y-77264000D03*
%TO.P,U14,7,RO*%
%TO.N,/BM1366/RO*%
X138806000Y-77766000D03*
%TO.P,U14,8,CLKI*%
%TO.N,/BM1366/CLKI*%
X138806000Y-78268000D03*
%TO.P,U14,9,CI*%
%TO.N,/BM1366/CI*%
X138806000Y-78770000D03*
%TO.P,U14,10,ADDR0*%
%TO.N,/BM1366/ADDR0*%
X138806000Y-79272000D03*
%TO.P,U14,11,ADDR1*%
%TO.N,/BM1366/ADDR1*%
X138806000Y-79774000D03*
%TO.P,U14,12,PLL_VSS*%
%TO.N,GND*%
X138806000Y-80276000D03*
%TO.P,U14,13,VDDIO_08_0*%
%TO.N,/BM1366/0V8*%
X138806000Y-80778000D03*
%TO.P,U14,14,VDDIO_18_0*%
%TO.N,/BM1366/1V8*%
X138806000Y-81280000D03*
%TO.P,U14,15,VDDIO_18_1*%
%TO.N,Net-(U14-VDDIO_18_1)*%
X132974000Y-81267000D03*
%TO.P,U14,16,VDDIO_08_1*%
%TO.N,Net-(U14-VDDIO_08_1)*%
X132974000Y-80767000D03*
%TO.P,U14,17,VSS*%
%TO.N,GND*%
X132974000Y-80267000D03*
%TO.P,U14,18,PIN_MODE*%
%TO.N,/BM1366/PIN_MODE*%
X132974000Y-79767000D03*
%TO.P,U14,19,INV_CLKO*%
%TO.N,/BM1366/INV_CLKO*%
X132974000Y-79267000D03*
%TO.P,U14,20,CO*%
%TO.N,/BM1366/CO*%
X132974000Y-78770000D03*
%TO.P,U14,21,CLKO*%
%TO.N,/BM1366/CLKO*%
X132974000Y-78267000D03*
%TO.P,U14,22,RI*%
%TO.N,/BM1366/RI*%
X132974000Y-77766000D03*
%TO.P,U14,23,BO*%
%TO.N,/BM1366/BO*%
X132974000Y-77264000D03*
%TO.P,U14,24,NRSTO*%
%TO.N,/BM1366/NRSTO*%
X132974000Y-76762000D03*
%TO.P,U14,25,VSS*%
%TO.N,GND*%
X132974000Y-76260000D03*
%TO.P,U14,26,VDD3_1*%
%TO.N,/BM1366/VDD3_1*%
X132974000Y-75767000D03*
%TO.P,U14,27,VDD2_1*%
%TO.N,/BM1366/VDD2_1*%
X132974000Y-75256000D03*
%TO.P,U14,28,VDD1_1*%
%TO.N,/BM1366/VDD1_1*%
X132974000Y-74767000D03*
D16*
%TO.P,U14,29,VDD*%
%TO.N,/VDD*%
X135890000Y-75549000D03*
D17*
%TO.P,U14,30,VSS*%
%TO.N,GND*%
X135890000Y-79125000D03*
%TD*%
D18*
%TO.P,J3,5,Pin_5*%
%TO.N,GND*%
X137160000Y-55880000D03*
%TO.P,J3,4,Pin_4*%
%TO.N,/BM1366/RST_N*%
X139700000Y-55880000D03*
%TO.P,J3,3,Pin_3*%
%TO.N,/BM1366/RO*%
X142240000Y-55880000D03*
%TO.P,J3,2,Pin_2*%
%TO.N,/BM1366/CI*%
X144780000Y-55880000D03*
D19*
%TO.P,J3,1,Pin_1*%
%TO.N,/BM1366/1V8*%
X147320000Y-55880000D03*
%TD*%
M02*
