%TF.GenerationSoftware,KiCad,Pcbnew,7.0.7+dfsg-1*%
%TF.CreationDate,2024-03-25T16:35:43+01:00*%
%TF.ProjectId,bitaxeUltra-asic,62697461-7865-4556-9c74-72612d617369,rev?*%
%TF.SameCoordinates,Original*%
%TF.FileFunction,Soldermask,Top*%
%TF.FilePolarity,Negative*%
%FSLAX46Y46*%
G04 Gerber Fmt 4.6, Leading zero omitted, Abs format (unit mm)*
G04 Created by KiCad (PCBNEW 7.0.7+dfsg-1) date 2024-03-25 16:35:43*
%MOMM*%
%LPD*%
G01*
G04 APERTURE LIST*
G04 Aperture macros list*
%AMRoundRect*
0 Rectangle with rounded corners*
0 $1 Rounding radius*
0 $2 $3 $4 $5 $6 $7 $8 $9 X,Y pos of 4 corners*
0 Add a 4 corners polygon primitive as box body*
4,1,4,$2,$3,$4,$5,$6,$7,$8,$9,$2,$3,0*
0 Add four circle primitives for the rounded corners*
1,1,$1+$1,$2,$3*
1,1,$1+$1,$4,$5*
1,1,$1+$1,$6,$7*
1,1,$1+$1,$8,$9*
0 Add four rect primitives between the rounded corners*
20,1,$1+$1,$2,$3,$4,$5,0*
20,1,$1+$1,$4,$5,$6,$7,0*
20,1,$1+$1,$6,$7,$8,$9,0*
20,1,$1+$1,$8,$9,$2,$3,0*%
G04 Aperture macros list end*
%ADD10RoundRect,0.140000X-0.140000X-0.170000X0.140000X-0.170000X0.140000X0.170000X-0.140000X0.170000X0*%
%ADD11RoundRect,0.150000X0.512500X0.150000X-0.512500X0.150000X-0.512500X-0.150000X0.512500X-0.150000X0*%
%ADD12RoundRect,0.140000X0.170000X-0.140000X0.170000X0.140000X-0.170000X0.140000X-0.170000X-0.140000X0*%
%ADD13C,2.800000*%
%ADD14RoundRect,0.250001X0.899999X-0.899999X0.899999X0.899999X-0.899999X0.899999X-0.899999X-0.899999X0*%
%ADD15C,2.300000*%
%ADD16RoundRect,0.007800X0.442200X0.122200X-0.442200X0.122200X-0.442200X-0.122200X0.442200X-0.122200X0*%
%ADD17RoundRect,0.007800X-0.122200X0.442200X-0.122200X-0.442200X0.122200X-0.442200X0.122200X0.442200X0*%
%ADD18R,2.050000X2.050000*%
%ADD19RoundRect,0.250000X0.625000X-0.350000X0.625000X0.350000X-0.625000X0.350000X-0.625000X-0.350000X0*%
%ADD20O,1.750000X1.200000*%
%ADD21C,1.500000*%
%ADD22R,1.300000X1.100000*%
%ADD23RoundRect,0.250000X1.025000X-0.875000X1.025000X0.875000X-1.025000X0.875000X-1.025000X-0.875000X0*%
%ADD24RoundRect,0.140000X-0.170000X0.140000X-0.170000X-0.140000X0.170000X-0.140000X0.170000X0.140000X0*%
%ADD25RoundRect,0.135000X0.135000X0.185000X-0.135000X0.185000X-0.135000X-0.185000X0.135000X-0.185000X0*%
%ADD26O,1.700000X1.700000*%
%ADD27R,1.700000X1.700000*%
G04 APERTURE END LIST*
D10*
%TO.C,C8*%
X135540000Y-64640000D03*
X136500000Y-64640000D03*
%TD*%
%TO.C,C3*%
X132670000Y-66610000D03*
X133630000Y-66610000D03*
%TD*%
D11*
%TO.C,U6*%
X144780000Y-80010000D03*
X144780000Y-79060000D03*
X144780000Y-78110000D03*
X142505000Y-78110000D03*
X142505000Y-80010000D03*
%TD*%
D10*
%TO.C,C9*%
X135540000Y-66610000D03*
X136500000Y-66610000D03*
%TD*%
%TO.C,C12*%
X135540000Y-72520000D03*
X136500000Y-72520000D03*
%TD*%
D12*
%TO.C,C25*%
X140970000Y-79700000D03*
X140970000Y-78740000D03*
%TD*%
D10*
%TO.C,C23*%
X141280000Y-66610000D03*
X142240000Y-66610000D03*
%TD*%
D13*
%TO.C,J2*%
X159850000Y-110210000D03*
X159850000Y-105410000D03*
X159850000Y-100610000D03*
D14*
X146050000Y-110210000D03*
D15*
X146050000Y-105410000D03*
X146050000Y-100610000D03*
%TD*%
D10*
%TO.C,C10*%
X135540000Y-68580000D03*
X136500000Y-68580000D03*
%TD*%
%TO.C,C15*%
X138410000Y-64640000D03*
X139370000Y-64640000D03*
%TD*%
D16*
%TO.C,U2*%
X160850000Y-72055000D03*
D17*
X160165000Y-71120000D03*
X159665000Y-71120000D03*
X159165000Y-71120000D03*
X158665000Y-71120000D03*
X158165000Y-71120000D03*
D16*
X157480000Y-72055000D03*
X157480000Y-73555000D03*
D17*
X158165000Y-74490000D03*
X158665000Y-74490000D03*
X159165000Y-74490000D03*
X159665000Y-74490000D03*
X160165000Y-74490000D03*
D16*
X160850000Y-73555000D03*
D18*
X159165000Y-72805000D03*
%TD*%
D10*
%TO.C,C2*%
X132670000Y-64640000D03*
X133630000Y-64640000D03*
%TD*%
%TO.C,C18*%
X138410000Y-70550000D03*
X139370000Y-70550000D03*
%TD*%
%TO.C,C1*%
X132670000Y-62670000D03*
X133630000Y-62670000D03*
%TD*%
D19*
%TO.C,J1*%
X158750000Y-67500000D03*
D20*
X158750000Y-65500000D03*
X158750000Y-63500000D03*
%TD*%
D10*
%TO.C,C11*%
X135540000Y-70550000D03*
X136500000Y-70550000D03*
%TD*%
%TO.C,C24*%
X141280000Y-68580000D03*
X142240000Y-68580000D03*
%TD*%
%TO.C,C14*%
X138410000Y-62670000D03*
X139370000Y-62670000D03*
%TD*%
D21*
%TO.C,TP14*%
X122840000Y-66410000D03*
%TD*%
D10*
%TO.C,C20*%
X141280000Y-62670000D03*
X142240000Y-62670000D03*
%TD*%
D22*
%TO.C,U1*%
X159900000Y-77790000D03*
X157600000Y-77790000D03*
X157600000Y-79690000D03*
X159900000Y-79690000D03*
%TD*%
D23*
%TO.C,C13*%
X135890000Y-108610000D03*
X135890000Y-102210000D03*
%TD*%
D10*
%TO.C,C16*%
X139370000Y-66610000D03*
X138410000Y-66610000D03*
%TD*%
%TO.C,C4*%
X132670000Y-68580000D03*
X133630000Y-68580000D03*
%TD*%
D24*
%TO.C,C19*%
X140970000Y-82550000D03*
X140970000Y-83510000D03*
%TD*%
D21*
%TO.C,TP13*%
X122840000Y-62860000D03*
%TD*%
D25*
%TO.C,R6*%
X158500000Y-76200000D03*
X157480000Y-76200000D03*
%TD*%
D10*
%TO.C,C7*%
X135540000Y-62670000D03*
X136500000Y-62670000D03*
%TD*%
%TO.C,C17*%
X138410000Y-68580000D03*
X139370000Y-68580000D03*
%TD*%
%TO.C,C6*%
X132670000Y-72520000D03*
X133630000Y-72520000D03*
%TD*%
D11*
%TO.C,U5*%
X144647500Y-83500000D03*
X144647500Y-82550000D03*
X144647500Y-81600000D03*
X142372500Y-81600000D03*
X142372500Y-83500000D03*
%TD*%
D10*
%TO.C,C5*%
X132670000Y-70550000D03*
X133630000Y-70550000D03*
%TD*%
%TO.C,C22*%
X141280000Y-64640000D03*
X142240000Y-64640000D03*
%TD*%
D26*
%TO.C,J3*%
X137160000Y-55880000D03*
X139700000Y-55880000D03*
X142240000Y-55880000D03*
X144780000Y-55880000D03*
D27*
X147320000Y-55880000D03*
%TD*%
M02*
