%TF.GenerationSoftware,KiCad,Pcbnew,7.0.7+dfsg-1*%
%TF.CreationDate,2024-03-25T16:35:43+01:00*%
%TF.ProjectId,bitaxeUltra-asic,62697461-7865-4556-9c74-72612d617369,rev?*%
%TF.SameCoordinates,Original*%
%TF.FileFunction,Legend,Bot*%
%TF.FilePolarity,Positive*%
%FSLAX46Y46*%
G04 Gerber Fmt 4.6, Leading zero omitted, Abs format (unit mm)*
G04 Created by KiCad (PCBNEW 7.0.7+dfsg-1) date 2024-03-25 16:35:43*
%MOMM*%
%LPD*%
G01*
G04 APERTURE LIST*
G04 Aperture macros list*
%AMRoundRect*
0 Rectangle with rounded corners*
0 $1 Rounding radius*
0 $2 $3 $4 $5 $6 $7 $8 $9 X,Y pos of 4 corners*
0 Add a 4 corners polygon primitive as box body*
4,1,4,$2,$3,$4,$5,$6,$7,$8,$9,$2,$3,0*
0 Add four circle primitives for the rounded corners*
1,1,$1+$1,$2,$3*
1,1,$1+$1,$4,$5*
1,1,$1+$1,$6,$7*
1,1,$1+$1,$8,$9*
0 Add four rect primitives between the rounded corners*
20,1,$1+$1,$2,$3,$4,$5,0*
20,1,$1+$1,$4,$5,$6,$7,0*
20,1,$1+$1,$6,$7,$8,$9,0*
20,1,$1+$1,$8,$9,$2,$3,0*%
G04 Aperture macros list end*
%ADD10C,0.100000*%
%ADD11C,0.150000*%
%ADD12C,0.050000*%
%ADD13C,0.227485*%
%ADD14C,2.800000*%
%ADD15RoundRect,0.250001X0.899999X-0.899999X0.899999X0.899999X-0.899999X0.899999X-0.899999X-0.899999X0*%
%ADD16C,2.300000*%
%ADD17RoundRect,0.250000X0.625000X-0.350000X0.625000X0.350000X-0.625000X0.350000X-0.625000X-0.350000X0*%
%ADD18O,1.750000X1.200000*%
%ADD19R,0.792000X0.221000*%
%ADD20R,4.277000X1.810000*%
%ADD21R,4.277000X4.530000*%
%ADD22O,1.700000X1.700000*%
%ADD23R,1.700000X1.700000*%
G04 APERTURE END LIST*
D10*
X136651904Y-77427419D02*
X136651904Y-76427419D01*
X136651904Y-76903609D02*
X136080476Y-76903609D01*
X136080476Y-77427419D02*
X136080476Y-76427419D01*
X135080476Y-77427419D02*
X135651904Y-77427419D01*
X135366190Y-77427419D02*
X135366190Y-76427419D01*
X135366190Y-76427419D02*
X135461428Y-76570276D01*
X135461428Y-76570276D02*
X135556666Y-76665514D01*
X135556666Y-76665514D02*
X135651904Y-76713133D01*
D11*
X138098094Y-73271819D02*
X138098094Y-74081342D01*
X138098094Y-74081342D02*
X138050475Y-74176580D01*
X138050475Y-74176580D02*
X138002856Y-74224200D01*
X138002856Y-74224200D02*
X137907618Y-74271819D01*
X137907618Y-74271819D02*
X137717142Y-74271819D01*
X137717142Y-74271819D02*
X137621904Y-74224200D01*
X137621904Y-74224200D02*
X137574285Y-74176580D01*
X137574285Y-74176580D02*
X137526666Y-74081342D01*
X137526666Y-74081342D02*
X137526666Y-73271819D01*
X136526666Y-74271819D02*
X137098094Y-74271819D01*
X136812380Y-74271819D02*
X136812380Y-73271819D01*
X136812380Y-73271819D02*
X136907618Y-73414676D01*
X136907618Y-73414676D02*
X137002856Y-73509914D01*
X137002856Y-73509914D02*
X137098094Y-73557533D01*
X135669523Y-73605152D02*
X135669523Y-74271819D01*
X135907618Y-73224200D02*
X136145713Y-73938485D01*
X136145713Y-73938485D02*
X135526666Y-73938485D01*
D10*
%TO.C,H1*%
X155890000Y-62470000D02*
X155890000Y-63570000D01*
X155890000Y-63970000D02*
X155890000Y-65070000D01*
X155890000Y-65470000D02*
X155890000Y-66570000D01*
X155890000Y-66970000D02*
X155890000Y-68070000D01*
X155890000Y-68470000D02*
X155890000Y-69570000D01*
X155890000Y-69970000D02*
X155890000Y-71070000D01*
X155890000Y-71470000D02*
X155890000Y-72570000D01*
X155890000Y-72970000D02*
X155890000Y-74070000D01*
X155890000Y-74470000D02*
X155890000Y-75570000D01*
X155890000Y-75970000D02*
X155890000Y-77070000D01*
X155890000Y-77470000D02*
X155890000Y-78570000D01*
X155890000Y-78970000D02*
X155890000Y-80070000D01*
X155890000Y-80470000D02*
X155890000Y-81570000D01*
X155890000Y-81970000D02*
X155890000Y-83070000D01*
X155890000Y-83470000D02*
X155890000Y-84570000D01*
X155890000Y-84970000D02*
X155890000Y-86070000D01*
X155890000Y-86470000D02*
X155890000Y-87570000D01*
X155890000Y-87970000D02*
X155890000Y-89070000D01*
X155890000Y-89470000D02*
X155890000Y-90570000D01*
X155890000Y-90970000D02*
X155890000Y-92070000D01*
X155890000Y-92470000D02*
X155890000Y-93570000D01*
X155890000Y-93970000D02*
X155890000Y-95070000D01*
X155890000Y-95470000D02*
X155890000Y-96570000D01*
X155890000Y-96970000D02*
X155890000Y-97470000D01*
X155890000Y-97470000D02*
X154790000Y-97470000D01*
X154390000Y-97470000D02*
X153290000Y-97470000D01*
X152890000Y-97470000D02*
X151790000Y-97470000D01*
X151390000Y-97470000D02*
X150290000Y-97470000D01*
X149890000Y-97470000D02*
X148790000Y-97470000D01*
X148390000Y-97470000D02*
X147290000Y-97470000D01*
X146890000Y-97470000D02*
X145790000Y-97470000D01*
X145390000Y-97470000D02*
X144290000Y-97470000D01*
X143890000Y-97470000D02*
X142790000Y-97470000D01*
X142390000Y-97470000D02*
X141290000Y-97470000D01*
X140890000Y-97470000D02*
X139790000Y-97470000D01*
X139390000Y-97470000D02*
X138290000Y-97470000D01*
X137890000Y-97470000D02*
X136790000Y-97470000D01*
X136390000Y-97470000D02*
X135290000Y-97470000D01*
X134890000Y-97470000D02*
X133790000Y-97470000D01*
X133390000Y-97470000D02*
X132290000Y-97470000D01*
X131890000Y-97470000D02*
X130790000Y-97470000D01*
X130390000Y-97470000D02*
X129290000Y-97470000D01*
X128890000Y-97470000D02*
X127790000Y-97470000D01*
X127390000Y-97470000D02*
X126290000Y-97470000D01*
X125890000Y-97470000D02*
X124790000Y-97470000D01*
X124390000Y-97470000D02*
X123290000Y-97470000D01*
X122890000Y-97470000D02*
X121790000Y-97470000D01*
X121390000Y-97470000D02*
X120890000Y-97470000D01*
X115890000Y-57470000D02*
X116990000Y-57470000D01*
X117390000Y-57470000D02*
X118490000Y-57470000D01*
X118890000Y-57470000D02*
X119990000Y-57470000D01*
X120390000Y-57470000D02*
X121490000Y-57470000D01*
X121890000Y-57470000D02*
X122990000Y-57470000D01*
X123390000Y-57470000D02*
X124490000Y-57470000D01*
X124890000Y-57470000D02*
X125990000Y-57470000D01*
X126390000Y-57470000D02*
X127490000Y-57470000D01*
X127890000Y-57470000D02*
X128990000Y-57470000D01*
X129390000Y-57470000D02*
X130490000Y-57470000D01*
X130890000Y-57470000D02*
X131990000Y-57470000D01*
X132390000Y-57470000D02*
X133490000Y-57470000D01*
X133890000Y-57470000D02*
X134990000Y-57470000D01*
X135390000Y-57470000D02*
X136490000Y-57470000D01*
X136890000Y-57470000D02*
X137990000Y-57470000D01*
X138390000Y-57470000D02*
X139490000Y-57470000D01*
X139890000Y-57470000D02*
X140990000Y-57470000D01*
X141390000Y-57470000D02*
X142490000Y-57470000D01*
X142890000Y-57470000D02*
X143990000Y-57470000D01*
X144390000Y-57470000D02*
X145490000Y-57470000D01*
X145890000Y-57470000D02*
X146990000Y-57470000D01*
X147390000Y-57470000D02*
X148490000Y-57470000D01*
X148890000Y-57470000D02*
X149990000Y-57470000D01*
X150390000Y-57470000D02*
X150890000Y-57470000D01*
X115890000Y-92470000D02*
X115890000Y-91370000D01*
X115890000Y-90970000D02*
X115890000Y-89870000D01*
X115890000Y-89470000D02*
X115890000Y-88370000D01*
X115890000Y-87970000D02*
X115890000Y-86870000D01*
X115890000Y-86470000D02*
X115890000Y-85370000D01*
X115890000Y-84970000D02*
X115890000Y-83870000D01*
X115890000Y-83470000D02*
X115890000Y-82370000D01*
X115890000Y-81970000D02*
X115890000Y-80870000D01*
X115890000Y-80470000D02*
X115890000Y-79370000D01*
X115890000Y-78970000D02*
X115890000Y-77870000D01*
X115890000Y-77470000D02*
X115890000Y-76370000D01*
X115890000Y-75970000D02*
X115890000Y-74870000D01*
X115890000Y-74470000D02*
X115890000Y-73370000D01*
X115890000Y-72970000D02*
X115890000Y-71870000D01*
X115890000Y-71470000D02*
X115890000Y-70370000D01*
X115890000Y-69970000D02*
X115890000Y-68870000D01*
X115890000Y-68470000D02*
X115890000Y-67370000D01*
X115890000Y-66970000D02*
X115890000Y-65870000D01*
X115890000Y-65470000D02*
X115890000Y-64370000D01*
X115890000Y-63970000D02*
X115890000Y-62870000D01*
X115890000Y-62470000D02*
X115890000Y-61370000D01*
X115890000Y-60970000D02*
X115890000Y-59870000D01*
X115890000Y-59470000D02*
X115890000Y-58370000D01*
X115890000Y-57970000D02*
X115890000Y-57470000D01*
X150890000Y-57470000D02*
X151981148Y-57590512D01*
X152367601Y-57693317D02*
X153374400Y-58130904D01*
X153713212Y-58343321D02*
X154545729Y-59058893D01*
X154806634Y-59361950D02*
X155390502Y-60291587D01*
X155550195Y-60658211D02*
X155833258Y-61718872D01*
X155877474Y-62116313D02*
X155890000Y-62470000D01*
X120890000Y-97470000D02*
X119798851Y-97349487D01*
X119412398Y-97246682D02*
X118405599Y-96809095D01*
X118066787Y-96596678D02*
X117234270Y-95881106D01*
X116973365Y-95578049D02*
X116389497Y-94648412D01*
X116229804Y-94281788D02*
X115946741Y-93221127D01*
X115902525Y-92823686D02*
X115890000Y-92470000D01*
D12*
%TO.C,U14*%
X138890000Y-74517000D02*
X132890000Y-74517000D01*
X132890000Y-74517000D02*
X132890000Y-81517000D01*
X132890000Y-81517000D02*
X138890000Y-81517000D01*
X138890000Y-81517000D02*
X138890000Y-74517000D01*
D13*
X139323742Y-74207000D02*
G75*
G03*
X139323742Y-74207000I-113742J0D01*
G01*
%TD*%
%LPC*%
D14*
%TO.C,J2*%
X159850000Y-110210000D03*
X159850000Y-105410000D03*
X159850000Y-100610000D03*
D15*
X146050000Y-110210000D03*
D16*
X146050000Y-105410000D03*
X146050000Y-100610000D03*
%TD*%
D17*
%TO.C,J1*%
X158750000Y-67500000D03*
D18*
X158750000Y-65500000D03*
X158750000Y-63500000D03*
%TD*%
D19*
%TO.C,U14*%
X138806000Y-74754000D03*
X138806000Y-75256000D03*
X138806000Y-75758000D03*
X138806000Y-76260000D03*
X138806000Y-76762000D03*
X138806000Y-77264000D03*
X138806000Y-77766000D03*
X138806000Y-78268000D03*
X138806000Y-78770000D03*
X138806000Y-79272000D03*
X138806000Y-79774000D03*
X138806000Y-80276000D03*
X138806000Y-80778000D03*
X138806000Y-81280000D03*
X132974000Y-81267000D03*
X132974000Y-80767000D03*
X132974000Y-80267000D03*
X132974000Y-79767000D03*
X132974000Y-79267000D03*
X132974000Y-78770000D03*
X132974000Y-78267000D03*
X132974000Y-77766000D03*
X132974000Y-77264000D03*
X132974000Y-76762000D03*
X132974000Y-76260000D03*
X132974000Y-75767000D03*
X132974000Y-75256000D03*
X132974000Y-74767000D03*
D20*
X135890000Y-75549000D03*
D21*
X135890000Y-79125000D03*
%TD*%
D22*
%TO.C,J3*%
X137160000Y-55880000D03*
X139700000Y-55880000D03*
X142240000Y-55880000D03*
X144780000Y-55880000D03*
D23*
X147320000Y-55880000D03*
%TD*%
%LPD*%
M02*
