%TF.GenerationSoftware,KiCad,Pcbnew,7.0.7+dfsg-1*%
%TF.CreationDate,2024-03-25T16:35:43+01:00*%
%TF.ProjectId,bitaxeUltra-asic,62697461-7865-4556-9c74-72612d617369,rev?*%
%TF.SameCoordinates,Original*%
%TF.FileFunction,Paste,Bot*%
%TF.FilePolarity,Positive*%
%FSLAX46Y46*%
G04 Gerber Fmt 4.6, Leading zero omitted, Abs format (unit mm)*
G04 Created by KiCad (PCBNEW 7.0.7+dfsg-1) date 2024-03-25 16:35:43*
%MOMM*%
%LPD*%
G01*
G04 APERTURE LIST*
%ADD10C,0.001000*%
%ADD11R,0.792000X0.221000*%
G04 APERTURE END LIST*
D10*
%TO.C,U14*%
X137520000Y-77192000D02*
X136320000Y-77192000D01*
X136320000Y-77192000D02*
X136320000Y-77982000D01*
X136320000Y-77982000D02*
X137520000Y-77982000D01*
X137520000Y-77982000D02*
X137520000Y-77192000D01*
G36*
X137520000Y-77192000D02*
G01*
X136320000Y-77192000D01*
X136320000Y-77982000D01*
X137520000Y-77982000D01*
X137520000Y-77192000D01*
G37*
X137520000Y-80222000D02*
X136320000Y-80222000D01*
X136320000Y-80222000D02*
X136320000Y-81012000D01*
X136320000Y-81012000D02*
X137520000Y-81012000D01*
X137520000Y-81012000D02*
X137520000Y-80222000D01*
G36*
X137520000Y-80222000D02*
G01*
X136320000Y-80222000D01*
X136320000Y-81012000D01*
X137520000Y-81012000D01*
X137520000Y-80222000D01*
G37*
X137500000Y-78782000D02*
X136300000Y-78782000D01*
X136300000Y-78782000D02*
X136300000Y-79572000D01*
X136300000Y-79572000D02*
X137500000Y-79572000D01*
X137500000Y-79572000D02*
X137500000Y-78782000D01*
G36*
X137500000Y-78782000D02*
G01*
X136300000Y-78782000D01*
X136300000Y-79572000D01*
X137500000Y-79572000D01*
X137500000Y-78782000D01*
G37*
X137470000Y-75112000D02*
X136270000Y-75112000D01*
X136270000Y-75112000D02*
X136270000Y-75902000D01*
X136270000Y-75902000D02*
X137470000Y-75902000D01*
X137470000Y-75902000D02*
X137470000Y-75112000D01*
G36*
X137470000Y-75112000D02*
G01*
X136270000Y-75112000D01*
X136270000Y-75902000D01*
X137470000Y-75902000D01*
X137470000Y-75112000D01*
G37*
X135390000Y-77187000D02*
X134190000Y-77187000D01*
X134190000Y-77187000D02*
X134190000Y-77977000D01*
X134190000Y-77977000D02*
X135390000Y-77977000D01*
X135390000Y-77977000D02*
X135390000Y-77187000D01*
G36*
X135390000Y-77187000D02*
G01*
X134190000Y-77187000D01*
X134190000Y-77977000D01*
X135390000Y-77977000D01*
X135390000Y-77187000D01*
G37*
X135390000Y-80217000D02*
X134190000Y-80217000D01*
X134190000Y-80217000D02*
X134190000Y-81007000D01*
X134190000Y-81007000D02*
X135390000Y-81007000D01*
X135390000Y-81007000D02*
X135390000Y-80217000D01*
G36*
X135390000Y-80217000D02*
G01*
X134190000Y-80217000D01*
X134190000Y-81007000D01*
X135390000Y-81007000D01*
X135390000Y-80217000D01*
G37*
X135370000Y-78777000D02*
X134170000Y-78777000D01*
X134170000Y-78777000D02*
X134170000Y-79567000D01*
X134170000Y-79567000D02*
X135370000Y-79567000D01*
X135370000Y-79567000D02*
X135370000Y-78777000D01*
G36*
X135370000Y-78777000D02*
G01*
X134170000Y-78777000D01*
X134170000Y-79567000D01*
X135370000Y-79567000D01*
X135370000Y-78777000D01*
G37*
X135340000Y-75107000D02*
X134140000Y-75107000D01*
X134140000Y-75107000D02*
X134140000Y-75897000D01*
X134140000Y-75897000D02*
X135340000Y-75897000D01*
X135340000Y-75897000D02*
X135340000Y-75107000D01*
G36*
X135340000Y-75107000D02*
G01*
X134140000Y-75107000D01*
X134140000Y-75897000D01*
X135340000Y-75897000D01*
X135340000Y-75107000D01*
G37*
%TD*%
D11*
%TO.C,U14*%
X138806000Y-74754000D03*
X138806000Y-75256000D03*
X138806000Y-75758000D03*
X138806000Y-76260000D03*
X138806000Y-76762000D03*
X138806000Y-77264000D03*
X138806000Y-77766000D03*
X138806000Y-78268000D03*
X138806000Y-78770000D03*
X138806000Y-79272000D03*
X138806000Y-79774000D03*
X138806000Y-80276000D03*
X138806000Y-80778000D03*
X138806000Y-81280000D03*
X132974000Y-81267000D03*
X132974000Y-80767000D03*
X132974000Y-80267000D03*
X132974000Y-79767000D03*
X132974000Y-79267000D03*
X132974000Y-78770000D03*
X132974000Y-78267000D03*
X132974000Y-77766000D03*
X132974000Y-77264000D03*
X132974000Y-76762000D03*
X132974000Y-76260000D03*
X132974000Y-75767000D03*
X132974000Y-75256000D03*
X132974000Y-74767000D03*
%TD*%
M02*
